<?xml version="1.0" encoding="utf-8"?>
<svg viewBox="0 0 1200 630" width="1200" height="630" xmlns="http://www.w3.org/2000/svg">
  <defs>
    <radialGradient id="gradient-3" gradientUnits="userSpaceOnUse" cx="845.138" cy="475.138" r="470" gradientTransform="matrix(0.696608, -0.96512, 0.810848, 0.585257, -258.802521, 703.730408)">
      <stop offset="0" style="stop-color: rgb(0, 170, 237);"/>
      <stop offset="1" style="stop-color: rgb(0, 145, 202);"/>
    </radialGradient>
    <linearGradient id="gradient-2" gradientUnits="userSpaceOnUse" x1="510" y1="40" x2="510" y2="980" gradientTransform="matrix(1, 0, 0, 1, 0, 0)">
      <stop offset="0" style="stop-color: rgb(152, 226, 255);"/>
      <stop offset="1" style="stop-color: rgb(78, 193, 239);"/>
    </linearGradient>
  </defs>
  <path d="M 0 0 H 1200 V 630 H 0 V 0 Z" style="fill: rgb(12, 74, 110);"/>
  <path d="M 371.246 492.371 L 680.534 492.371 C 715.078 492.371 743.088 520.381 743.088 554.93 L 743.088 630 L 469.005 630 L 459.416 604.75 L 449.172 573.057 L 444.772 554.63 L 443.626 548.362 L 374.948 548.439 L 370.038 549.248 C 366.942 549.767 364 550.968 361.424 552.762 C 356.363 556.228 352.406 560.915 349.557 566.832 C 346.676 572.818 346.254 579.451 348.305 586.728 C 350.394 594.143 355.221 600.142 362.784 604.733 C 367.631 607.674 373.157 608.93 379.365 608.504 C 385.402 608.088 391.448 608.018 397.511 608.299 L 402.778 625.02 L 404.611 630 L 308.688 630 L 308.688 554.925 C 308.688 520.381 336.698 492.371 371.246 492.371 Z M 397.513 608.299 C 397.512 608.299 397.512 608.299 397.511 608.299 L 397.51 608.295 Z" style="fill: rgb(7, 89, 133);"/>
  <path d="M 972.363 162.504 C 946.918 162.501 926.284 141.867 926.284 116.417 L 926.284 0 L 1021.729 0 L 1022.978 2.545 L 1036.867 25.24 L 1050.556 44.583 L 1064.723 60.992 L 1078.383 74.542 L 1087.686 82.401 L 1100.803 92.027 L 1113.423 99.952 L 1124.966 105.745 L 1138.444 111.403 L 1151.99 115.489 L 1167.903 118.897 L 1180.608 120.379 L 1194.131 120.935 L 1199.096 120.484 C 1199.096 120.484 1199.468 120.359 1200 120.181 L 1200 162.504 Z M 1197.862 76.888 L 1192.409 76.606 L 1180.969 75.924 L 1169.001 74.132 L 1158.053 71.243 L 1147.36 67.284 L 1136.953 62.484 L 1126.816 56.02 L 1112.905 45.899 L 1102.009 35.636 L 1092.53 25.812 L 1082.604 13.533 L 1073.693 0 L 1200 0 L 1200 77.554 Z" style="fill: rgb(7, 89, 133);"/>
  <path d="M 339.484 299.034 C 340.049 299.034 340.535 299.269 340.942 299.739 C 341.349 300.208 341.552 300.756 341.552 301.383 C 341.552 302.762 340.488 304.109 338.358 305.425 C 333.845 308.119 329.083 309.466 324.07 309.466 C 317.115 309.466 311.632 307.367 307.621 303.17 C 303.611 298.972 301.606 293.206 301.606 285.874 C 301.606 281.175 302.499 277.025 304.285 273.422 C 306.071 269.818 308.577 267.029 311.804 265.056 C 315.031 263.081 318.743 262.094 322.942 262.094 C 328.832 262.094 333.485 263.989 336.9 267.781 C 340.316 271.573 342.024 276.789 342.024 283.432 C 342.024 284.56 341.773 285.39 341.271 285.923 C 340.77 286.455 339.955 286.721 338.827 286.721 L 307.528 286.721 C 307.715 292.486 309.218 296.872 312.038 299.879 C 314.858 302.887 318.838 304.392 323.977 304.392 C 326.671 304.392 328.927 304.031 330.744 303.31 C 332.561 302.59 334.503 301.635 336.571 300.443 C 337.949 299.503 338.921 299.034 339.484 299.034 Z M 322.942 266.794 C 318.556 266.794 315.047 268.173 312.414 270.931 C 309.783 273.687 308.217 277.541 307.716 282.492 L 336.759 282.492 C 336.633 277.479 335.381 273.609 333 270.882 C 330.619 268.157 327.266 266.794 322.942 266.794 Z M 372.004 262.094 C 377.519 262.094 381.639 263.535 384.366 266.418 C 387.091 269.301 388.454 273.656 388.454 279.483 L 388.454 306.272 C 388.454 307.149 388.203 307.854 387.702 308.387 C 387.2 308.919 386.511 309.185 385.633 309.185 C 384.756 309.185 384.067 308.919 383.567 308.387 C 383.066 307.854 382.815 307.149 382.815 306.272 L 382.815 300.631 C 381.498 303.451 379.587 305.628 377.081 307.163 C 374.574 308.699 371.692 309.466 368.434 309.466 C 365.489 309.466 362.795 308.871 360.351 307.681 C 357.906 306.491 355.978 304.83 354.568 302.699 C 353.159 300.568 352.454 298.218 352.454 295.649 C 352.454 292.266 353.331 289.634 355.086 287.754 C 356.841 285.875 359.755 284.528 363.828 283.713 C 367.9 282.899 373.571 282.492 380.84 282.492 L 382.815 282.492 L 382.815 279.014 C 382.815 274.877 381.969 271.853 380.276 269.942 C 378.584 268.031 375.921 267.075 372.288 267.075 C 367.65 267.075 363.232 268.298 359.035 270.743 C 358.846 270.868 358.36 271.197 357.577 271.73 C 356.794 272.262 356.121 272.528 355.557 272.528 C 354.931 272.528 354.413 272.293 354.004 271.822 C 353.597 271.354 353.394 270.774 353.394 270.084 C 353.394 268.705 354.49 267.358 356.683 266.042 C 358.878 264.789 361.322 263.817 364.016 263.129 C 366.711 262.439 369.374 262.094 372.004 262.094 Z M 368.903 304.484 C 372.976 304.484 376.313 303.106 378.913 300.35 C 381.514 297.592 382.815 294.083 382.815 289.823 L 382.815 286.721 L 381.028 286.721 C 375.012 286.721 370.407 286.972 367.211 287.473 C 364.015 287.975 361.759 288.836 360.444 290.057 C 359.129 291.28 358.471 293.05 358.471 295.368 C 358.471 298.001 359.473 300.178 361.477 301.901 C 363.483 303.623 365.958 304.484 368.903 304.484 Z M 418.154 309.466 C 415.523 309.466 412.938 309.106 410.4 308.387 C 407.862 307.665 405.622 306.678 403.68 305.425 C 402.488 304.611 401.658 303.906 401.189 303.31 C 400.719 302.715 400.483 302.042 400.483 301.29 C 400.483 300.663 400.687 300.13 401.094 299.691 C 401.501 299.253 401.987 299.034 402.552 299.034 C 403.115 299.034 404.086 299.503 405.465 300.443 C 407.282 301.635 409.146 302.606 411.057 303.358 C 412.969 304.109 415.366 304.484 418.249 304.484 C 421.946 304.484 424.829 303.811 426.896 302.465 C 428.964 301.117 429.998 299.19 429.998 296.685 C 429.998 295.18 429.622 293.942 428.869 292.97 C 428.117 292 426.864 291.154 425.109 290.433 C 423.355 289.713 420.849 289.008 417.59 288.318 C 412.014 287.065 408.05 285.451 405.7 283.478 C 403.35 281.505 402.176 278.858 402.176 275.537 C 402.176 271.525 403.742 268.282 406.874 265.808 C 410.008 263.332 414.081 262.094 419.094 262.094 C 421.538 262.094 423.872 262.407 426.098 263.034 C 428.321 263.66 430.248 264.57 431.878 265.761 C 434.071 267.264 435.167 268.737 435.167 270.179 C 435.167 270.806 434.964 271.354 434.557 271.822 C 434.148 272.293 433.662 272.528 433.099 272.528 C 432.472 272.528 431.501 272.027 430.186 271.024 C 428.494 269.834 426.818 268.878 425.157 268.157 C 423.497 267.436 421.382 267.075 418.813 267.075 C 415.554 267.075 412.953 267.812 411.011 269.285 C 409.069 270.757 408.098 272.746 408.098 275.253 C 408.098 276.694 408.426 277.885 409.084 278.826 C 409.742 279.766 410.869 280.596 412.467 281.317 C 414.065 282.037 416.368 282.742 419.375 283.432 C 423.699 284.434 427.02 285.499 429.338 286.626 C 431.658 287.754 433.319 289.101 434.32 290.668 C 435.323 292.235 435.824 294.241 435.824 296.685 C 435.824 300.507 434.211 303.593 430.984 305.942 C 427.757 308.291 423.481 309.466 418.154 309.466 Z M 480.847 263.974 C 481.348 262.846 482.162 262.282 483.289 262.282 C 483.979 262.282 484.606 262.532 485.169 263.034 C 485.734 263.535 486.016 264.131 486.016 264.821 C 486.016 265.259 485.922 265.666 485.733 266.042 L 459.133 324.411 C 458.633 325.477 457.819 326.011 456.69 326.011 C 456 326.011 455.389 325.791 454.856 325.351 C 454.324 324.913 454.058 324.349 454.058 323.659 C 454.058 323.283 454.152 322.908 454.339 322.533 L 461.013 307.964 L 441.745 266.042 C 441.557 265.666 441.462 265.29 441.462 264.914 C 441.462 264.162 441.791 263.52 442.449 262.987 C 443.108 262.455 443.814 262.189 444.566 262.189 C 445.756 262.189 446.57 262.753 447.008 263.881 L 463.926 301.854 L 480.847 263.974 Z" style="fill: rgb(245, 245, 245); line-height: 786.937px; white-space: pre;"/>
  <path d="M 518.348 262.001 C 521.355 261.813 522.859 263.098 522.859 265.854 C 522.859 267.233 522.514 268.267 521.826 268.956 C 521.136 269.646 519.945 270.053 518.253 270.179 L 515.435 270.46 C 511.487 270.836 508.557 272.215 506.646 274.596 C 504.735 276.977 503.779 279.859 503.779 283.244 L 503.779 304.768 C 503.779 306.272 503.34 307.4 502.463 308.152 C 501.586 308.903 500.457 309.278 499.079 309.278 C 497.701 309.278 496.557 308.903 495.648 308.152 C 494.739 307.4 494.285 306.272 494.285 304.768 L 494.285 266.511 C 494.285 265.07 494.739 263.958 495.648 263.175 C 496.557 262.392 497.701 262.001 499.079 262.001 C 500.332 262.001 501.382 262.392 502.229 263.175 C 503.074 263.958 503.496 265.039 503.496 266.418 L 503.496 270.931 C 504.75 268.173 506.567 266.074 508.949 264.633 C 511.329 263.191 514.024 262.344 517.032 262.094 L 518.348 262.001 Z M 563.65 297.249 C 564.528 297.249 565.249 297.593 565.814 298.282 C 566.377 298.972 566.659 299.849 566.659 300.914 C 566.659 302.731 565.531 304.266 563.276 305.52 C 561.082 306.773 558.685 307.744 556.085 308.433 C 553.485 309.122 550.994 309.466 548.612 309.466 C 541.343 309.466 535.609 307.351 531.411 303.122 C 527.214 298.892 525.115 293.112 525.115 285.781 C 525.115 281.081 526.039 276.914 527.887 273.28 C 529.735 269.645 532.335 266.825 535.689 264.821 C 539.041 262.815 542.847 261.813 547.108 261.813 C 553.249 261.813 558.105 263.787 561.677 267.734 C 565.249 271.682 567.035 277.008 567.035 283.713 C 567.035 286.22 565.906 287.473 563.65 287.473 L 534.607 287.473 C 535.234 297.186 539.902 302.042 548.612 302.042 C 550.93 302.042 552.935 301.729 554.627 301.102 C 556.32 300.475 558.106 299.66 559.985 298.658 C 560.173 298.532 560.69 298.266 561.535 297.859 C 562.382 297.452 563.087 297.249 563.65 297.249 Z M 547.296 268.768 C 543.662 268.768 540.749 269.927 538.556 272.245 C 536.361 274.565 535.045 277.823 534.607 282.02 L 558.856 282.02 C 558.669 277.76 557.589 274.486 555.616 272.199 C 553.641 269.911 550.868 268.768 547.296 268.768 Z M 598.897 249.781 C 595.763 250.032 593.445 251.019 591.942 252.743 C 590.438 254.466 589.686 256.987 589.686 260.308 L 589.686 262.941 L 598.99 262.941 C 600.307 262.941 601.325 263.27 602.045 263.927 C 602.766 264.585 603.126 265.478 603.126 266.606 C 603.126 267.734 602.766 268.628 602.045 269.285 C 601.325 269.943 600.307 270.272 598.99 270.272 L 589.686 270.272 L 589.686 304.672 C 589.686 306.177 589.232 307.32 588.323 308.103 C 587.415 308.887 586.271 309.278 584.892 309.278 C 583.513 309.278 582.385 308.887 581.507 308.103 C 580.63 307.32 580.191 306.177 580.191 304.672 L 580.191 270.272 L 574.553 270.272 C 573.237 270.272 572.219 269.943 571.498 269.285 C 570.778 268.628 570.418 267.734 570.418 266.606 C 570.418 265.478 570.778 264.585 571.498 263.927 C 572.219 263.27 573.237 262.941 574.553 262.941 L 580.191 262.941 L 580.191 261.72 C 580.191 255.953 581.665 251.426 584.611 248.137 C 587.556 244.847 591.723 243.014 597.112 242.638 L 599.554 242.45 C 601.56 242.325 603.017 242.544 603.925 243.107 C 604.834 243.672 605.288 244.581 605.288 245.834 C 605.288 248.027 603.972 249.28 601.341 249.593 L 598.897 249.781 Z M 609.517 309.278 C 608.139 309.278 606.996 308.903 606.086 308.152 C 605.177 307.4 604.723 306.272 604.723 304.768 L 604.723 246.68 C 604.723 245.175 605.177 244.032 606.086 243.249 C 606.996 242.465 608.139 242.074 609.517 242.074 C 610.896 242.074 612.024 242.465 612.901 243.249 C 613.779 244.032 614.217 245.175 614.217 246.68 L 614.217 304.768 C 614.217 306.272 613.779 307.4 612.901 308.152 C 612.024 308.903 610.896 309.278 609.517 309.278 Z M 668.073 297.249 C 668.951 297.249 669.672 297.593 670.236 298.282 C 670.8 298.972 671.081 299.849 671.081 300.914 C 671.081 302.731 669.954 304.266 667.699 305.52 C 665.505 306.773 663.107 307.744 660.508 308.433 C 657.908 309.122 655.417 309.466 653.035 309.466 C 645.766 309.466 640.032 307.351 635.834 303.122 C 631.637 298.892 629.538 293.112 629.538 285.781 C 629.538 281.081 630.462 276.914 632.31 273.28 C 634.157 269.645 636.758 266.825 640.112 264.821 C 643.464 262.815 647.27 261.813 651.531 261.813 C 657.672 261.813 662.528 263.787 666.1 267.734 C 669.672 271.682 671.458 277.008 671.458 283.713 C 671.458 286.22 670.329 287.473 668.073 287.473 L 639.03 287.473 C 639.657 297.186 644.325 302.042 653.035 302.042 C 655.353 302.042 657.358 301.729 659.05 301.102 C 660.743 300.475 662.529 299.66 664.408 298.658 C 664.596 298.532 665.113 298.266 665.958 297.859 C 666.805 297.452 667.51 297.249 668.073 297.249 Z M 651.719 268.768 C 648.085 268.768 645.172 269.927 642.979 272.245 C 640.784 274.565 639.468 277.823 639.03 282.02 L 663.279 282.02 C 663.092 277.76 662.012 274.486 660.039 272.199 C 658.064 269.911 655.291 268.768 651.719 268.768 Z M 701.535 309.466 C 697.085 309.466 693.185 308.495 689.833 306.553 C 686.479 304.611 683.878 301.854 682.03 298.282 C 680.183 294.71 679.259 290.574 679.259 285.874 C 679.259 281.112 680.214 276.914 682.126 273.28 C 684.035 269.645 686.713 266.825 690.16 264.821 C 693.606 262.815 697.554 261.813 702.004 261.813 C 704.385 261.813 706.782 262.157 709.195 262.846 C 711.608 263.536 713.754 264.476 715.632 265.666 C 717.638 267.045 718.641 268.643 718.641 270.46 C 718.641 271.525 718.358 272.418 717.794 273.139 C 717.23 273.86 716.51 274.22 715.632 274.22 C 715.069 274.22 714.505 274.079 713.94 273.796 C 713.377 273.514 712.657 273.092 711.779 272.528 C 710.213 271.525 708.756 270.758 707.408 270.225 C 706.061 269.693 704.448 269.427 702.568 269.427 C 698.307 269.427 695.002 270.868 692.651 273.749 C 690.301 276.632 689.127 280.643 689.127 285.781 C 689.127 290.919 690.286 294.882 692.604 297.671 C 694.923 300.46 698.213 301.854 702.475 301.854 C 704.354 301.854 706.014 301.572 707.456 301.007 C 708.897 300.444 710.37 299.692 711.874 298.753 C 712.563 298.313 713.252 297.937 713.94 297.625 C 714.63 297.311 715.257 297.153 715.821 297.153 C 716.698 297.153 717.418 297.514 717.982 298.235 C 718.547 298.956 718.829 299.849 718.829 300.914 C 718.829 301.792 718.594 302.59 718.123 303.31 C 717.654 304.031 716.856 304.768 715.728 305.52 C 713.847 306.773 711.654 307.744 709.147 308.433 C 706.641 309.122 704.104 309.466 701.535 309.466 Z M 749.938 302.042 C 751.317 302.168 752.304 302.527 752.9 303.122 C 753.496 303.717 753.794 304.548 753.794 305.613 C 753.794 306.866 753.308 307.822 752.336 308.48 C 751.364 309.137 749.939 309.404 748.06 309.278 L 745.52 309.09 C 740.446 308.716 736.655 307.165 734.148 304.438 C 731.641 301.713 730.387 297.687 730.387 292.36 L 730.387 270.272 L 724.749 270.272 C 721.992 270.272 720.614 269.05 720.614 266.606 C 720.614 265.478 720.974 264.585 721.694 263.927 C 722.415 263.27 723.433 262.941 724.749 262.941 L 730.387 262.941 L 730.387 253.258 C 730.387 251.818 730.811 250.69 731.657 249.876 C 732.504 249.06 733.647 248.653 735.088 248.653 C 736.529 248.653 737.688 249.06 738.566 249.876 C 739.443 250.69 739.882 251.818 739.882 253.258 L 739.882 262.941 L 749.186 262.941 C 750.503 262.941 751.521 263.27 752.241 263.927 C 752.962 264.585 753.323 265.478 753.323 266.606 C 753.323 267.796 752.962 268.705 752.241 269.332 C 751.521 269.958 750.503 270.272 749.186 270.272 L 739.882 270.272 L 739.882 293.019 C 739.882 295.964 740.493 298.125 741.716 299.503 C 742.937 300.882 744.801 301.666 747.308 301.854 L 749.938 302.042 Z M 780.579 309.466 C 776.068 309.466 772.105 308.495 768.689 306.553 C 765.274 304.611 762.642 301.838 760.794 298.235 C 758.946 294.632 758.022 290.449 758.022 285.686 C 758.022 280.862 758.946 276.649 760.794 273.046 C 762.642 269.442 765.274 266.668 768.689 264.726 C 772.105 262.784 776.068 261.813 780.579 261.813 C 785.09 261.813 789.054 262.784 792.469 264.726 C 795.885 266.668 798.517 269.442 800.364 273.046 C 802.214 276.649 803.138 280.862 803.138 285.686 C 803.138 290.449 802.214 294.632 800.364 298.235 C 798.517 301.838 795.885 304.611 792.469 306.553 C 789.054 308.495 785.09 309.466 780.579 309.466 Z M 780.579 301.947 C 784.778 301.947 787.989 300.569 790.213 297.813 C 792.438 295.055 793.551 291.013 793.551 285.686 C 793.551 280.423 792.423 276.396 790.167 273.608 C 787.912 270.82 784.716 269.427 780.579 269.427 C 776.444 269.427 773.248 270.82 770.992 273.608 C 768.737 276.396 767.61 280.423 767.61 285.686 C 767.61 291.013 768.722 295.055 770.945 297.813 C 773.169 300.569 776.381 301.947 780.579 301.947 Z M 866.3 261.813 C 876.576 261.813 881.714 267.985 881.714 280.33 L 881.714 304.768 C 881.714 306.208 881.276 307.32 880.398 308.103 C 879.52 308.887 878.361 309.278 876.921 309.278 C 875.542 309.278 874.414 308.887 873.536 308.103 C 872.66 307.32 872.222 306.208 872.222 304.768 L 872.222 280.423 C 872.222 276.601 871.533 273.828 870.154 272.106 C 868.775 270.382 866.613 269.52 863.668 269.52 C 860.221 269.52 857.495 270.695 855.49 273.046 C 853.485 275.395 852.483 278.606 852.483 282.68 L 852.483 304.768 C 852.483 306.208 852.045 307.32 851.167 308.103 C 850.29 308.887 849.13 309.278 847.69 309.278 C 846.311 309.278 845.183 308.887 844.305 308.103 C 843.428 307.32 842.989 306.208 842.989 304.768 L 842.989 280.423 C 842.989 276.601 842.299 273.828 840.921 272.106 C 839.543 270.382 837.382 269.52 834.437 269.52 C 830.99 269.52 828.249 270.695 826.212 273.046 C 824.175 275.395 823.157 278.606 823.157 282.68 L 823.157 304.768 C 823.157 306.208 822.719 307.32 821.841 308.103 C 820.963 308.887 819.835 309.278 818.456 309.278 C 817.079 309.278 815.935 308.887 815.025 308.103 C 814.117 307.32 813.663 306.208 813.663 304.768 L 813.663 266.511 C 813.663 265.134 814.133 264.037 815.074 263.222 C 816.014 262.408 817.141 262.001 818.456 262.001 C 819.773 262.001 820.854 262.392 821.699 263.175 C 822.546 263.958 822.969 265.039 822.969 266.418 L 822.969 269.896 C 824.348 267.265 826.259 265.26 828.703 263.881 C 831.147 262.502 833.966 261.813 837.162 261.813 C 840.671 261.813 843.568 262.533 845.856 263.974 C 848.143 265.416 849.851 267.641 850.979 270.648 C 852.358 267.953 854.395 265.807 857.089 264.208 C 859.783 262.611 862.854 261.813 866.3 261.813 Z M 930.587 297.249 C 931.465 297.249 932.186 297.593 932.751 298.282 C 933.314 298.972 933.596 299.849 933.596 300.914 C 933.596 302.731 932.468 304.266 930.213 305.52 C 928.019 306.773 925.622 307.744 923.022 308.433 C 920.422 309.122 917.931 309.466 915.549 309.466 C 908.28 309.466 902.546 307.351 898.348 303.122 C 894.151 298.892 892.052 293.112 892.052 285.781 C 892.052 281.081 892.976 276.914 894.824 273.28 C 896.671 269.645 899.272 266.825 902.626 264.821 C 905.978 262.815 909.784 261.813 914.045 261.813 C 920.186 261.813 925.042 263.787 928.614 267.734 C 932.186 271.682 933.972 277.008 933.972 283.713 C 933.972 286.22 932.843 287.473 930.587 287.473 L 901.544 287.473 C 902.171 297.186 906.839 302.042 915.549 302.042 C 917.867 302.042 919.872 301.729 921.564 301.102 C 923.257 300.475 925.043 299.66 926.922 298.658 C 927.11 298.532 927.627 298.266 928.472 297.859 C 929.319 297.452 930.024 297.249 930.587 297.249 Z M 914.233 268.768 C 910.599 268.768 907.686 269.927 905.493 272.245 C 903.298 274.565 901.982 277.823 901.544 282.02 L 925.793 282.02 C 925.606 277.76 924.526 274.486 922.553 272.199 C 920.578 269.911 917.805 268.768 914.233 268.768 Z M 966.397 302.042 C 967.776 302.168 968.763 302.527 969.359 303.122 C 969.955 303.717 970.253 304.548 970.253 305.613 C 970.253 306.866 969.767 307.822 968.795 308.48 C 967.823 309.137 966.398 309.404 964.519 309.278 L 961.979 309.09 C 956.905 308.716 953.114 307.165 950.607 304.438 C 948.1 301.713 946.846 297.687 946.846 292.36 L 946.846 270.272 L 941.208 270.272 C 938.451 270.272 937.073 269.05 937.073 266.606 C 937.073 265.478 937.433 264.585 938.153 263.927 C 938.874 263.27 939.892 262.941 941.208 262.941 L 946.846 262.941 L 946.846 253.258 C 946.846 251.818 947.27 250.69 948.116 249.876 C 948.962 249.06 950.106 248.653 951.547 248.653 C 952.988 248.653 954.147 249.06 955.025 249.876 C 955.902 250.69 956.341 251.818 956.341 253.258 L 956.341 262.941 L 965.645 262.941 C 966.962 262.941 967.98 263.27 968.7 263.927 C 969.421 264.585 969.782 265.478 969.782 266.606 C 969.782 267.796 969.421 268.705 968.7 269.332 C 967.98 269.958 966.962 270.272 965.645 270.272 L 956.341 270.272 L 956.341 293.019 C 956.341 295.964 956.952 298.125 958.175 299.503 C 959.396 300.882 961.26 301.666 963.767 301.854 L 966.397 302.042 Z M 1001.175 262.001 C 1004.182 261.813 1005.685 263.098 1005.685 265.854 C 1005.685 267.233 1005.341 268.267 1004.652 268.956 C 1003.962 269.646 1002.771 270.053 1001.08 270.179 L 998.262 270.46 C 994.314 270.836 991.384 272.215 989.473 274.596 C 987.562 276.977 986.606 279.859 986.606 283.244 L 986.606 304.768 C 986.606 306.272 986.167 307.4 985.29 308.152 C 984.412 308.903 983.284 309.278 981.905 309.278 C 980.528 309.278 979.384 308.903 978.474 308.152 C 977.566 307.4 977.111 306.272 977.111 304.768 L 977.111 266.511 C 977.111 265.07 977.566 263.958 978.474 263.175 C 979.384 262.392 980.528 262.001 981.905 262.001 C 983.159 262.001 984.209 262.392 985.055 263.175 C 985.9 263.958 986.323 265.039 986.323 266.418 L 986.323 270.931 C 987.576 268.173 989.394 266.074 991.776 264.633 C 994.156 263.191 996.85 262.344 999.859 262.094 L 1001.175 262.001 Z M 1046.947 264.821 C 1047.323 263.88 1047.871 263.191 1048.593 262.753 C 1049.314 262.313 1050.081 262.094 1050.895 262.094 C 1052.086 262.094 1053.135 262.501 1054.043 263.317 C 1054.952 264.131 1055.406 265.102 1055.406 266.23 C 1055.406 266.857 1055.281 267.452 1055.03 268.015 L 1028.9 323.471 C 1028.524 324.349 1027.977 325.022 1027.257 325.493 C 1026.536 325.963 1025.768 326.199 1024.954 326.199 C 1023.826 326.199 1022.807 325.823 1021.899 325.07 C 1020.991 324.318 1020.536 323.378 1020.536 322.25 C 1020.536 321.748 1020.693 321.122 1021.005 320.37 L 1027.491 306.553 L 1009.35 268.015 C 1009.099 267.514 1008.974 266.951 1008.974 266.325 C 1008.974 265.134 1009.475 264.131 1010.478 263.317 C 1011.481 262.501 1012.609 262.094 1013.862 262.094 C 1015.743 262.094 1017.09 262.971 1017.904 264.726 L 1032.473 297.061 L 1046.947 264.821 Z" style="fill: rgb(245, 245, 245); line-height: 786.937px; white-space: pre;"/>
  <path d="M 325.864 351.795 C 326.27 351.795 326.585 351.918 326.809 352.164 C 327.033 352.409 327.145 352.735 327.145 353.14 L 327.145 373.403 C 327.145 373.786 327.038 374.095 326.824 374.33 C 326.612 374.564 326.313 374.682 325.928 374.682 C 325.545 374.682 325.256 374.564 325.063 374.33 C 324.871 374.095 324.776 373.786 324.776 373.403 L 324.776 357.044 L 317.83 370.361 C 317.532 370.981 317.095 371.29 316.518 371.29 C 315.963 371.29 315.526 370.981 315.206 370.361 L 308.227 357.206 L 308.227 373.403 C 308.227 373.786 308.126 374.095 307.924 374.33 C 307.72 374.564 307.427 374.682 307.043 374.682 C 306.658 374.682 306.36 374.564 306.147 374.33 C 305.933 374.095 305.827 373.786 305.827 373.403 L 305.827 353.14 C 305.827 352.735 305.944 352.409 306.178 352.164 C 306.413 351.918 306.733 351.795 307.138 351.795 C 307.672 351.795 308.099 352.105 308.419 352.724 L 316.549 368.313 L 324.583 352.724 C 324.754 352.382 324.942 352.142 325.145 352.003 C 325.347 351.864 325.587 351.795 325.864 351.795 Z M 338.729 358.549 C 342.634 358.549 344.587 360.598 344.587 364.696 L 344.587 373.403 C 344.587 373.786 344.474 374.095 344.25 374.33 C 344.026 374.564 343.722 374.682 343.337 374.682 C 342.953 374.682 342.644 374.564 342.41 374.33 C 342.175 374.095 342.058 373.786 342.058 373.403 L 342.058 371.866 C 341.653 372.783 341.033 373.492 340.2 373.994 C 339.368 374.495 338.408 374.746 337.32 374.746 C 336.317 374.746 335.394 374.543 334.55 374.137 C 333.708 373.732 333.041 373.166 332.55 372.441 C 332.059 371.715 331.814 370.915 331.814 370.041 C 331.814 368.867 332.112 367.955 332.71 367.304 C 333.308 366.654 334.291 366.184 335.656 365.895 C 337.022 365.608 338.921 365.464 341.352 365.464 L 342.058 365.464 L 342.058 364.406 C 342.058 363.126 341.796 362.188 341.273 361.59 C 340.751 360.993 339.903 360.694 338.729 360.694 C 337.278 360.694 335.805 361.089 334.311 361.878 C 333.735 362.241 333.329 362.422 333.095 362.422 C 332.838 362.422 332.625 362.326 332.455 362.134 C 332.284 361.943 332.199 361.697 332.199 361.398 C 332.199 361.1 332.289 360.839 332.471 360.615 C 332.652 360.391 332.946 360.161 333.351 359.927 C 334.097 359.499 334.945 359.163 335.895 358.918 C 336.845 358.672 337.789 358.549 338.729 358.549 Z M 337.671 372.697 C 338.952 372.697 340.003 372.265 340.826 371.401 C 341.647 370.537 342.058 369.422 342.058 368.056 L 342.058 367.127 L 341.481 367.127 C 339.603 367.127 338.174 367.208 337.191 367.368 C 336.211 367.528 335.512 367.795 335.094 368.169 C 334.678 368.542 334.47 369.092 334.47 369.817 C 334.47 370.649 334.775 371.337 335.384 371.881 C 335.992 372.425 336.754 372.697 337.671 372.697 Z M 361.773 372.474 C 362.115 372.794 362.286 373.135 362.286 373.498 C 362.286 373.818 362.174 374.095 361.95 374.33 C 361.725 374.564 361.453 374.682 361.133 374.682 C 360.856 374.682 360.568 374.554 360.268 374.299 L 351.913 367.096 L 351.913 373.403 C 351.913 373.807 351.791 374.121 351.546 374.345 C 351.301 374.569 350.997 374.682 350.635 374.682 C 350.25 374.682 349.935 374.569 349.69 374.345 C 349.444 374.121 349.321 373.807 349.321 373.403 L 349.321 353.076 C 349.321 352.67 349.444 352.355 349.69 352.131 C 349.935 351.907 350.25 351.795 350.635 351.795 C 350.997 351.795 351.301 351.907 351.546 352.131 C 351.791 352.355 351.913 352.67 351.913 353.076 L 351.913 366.072 L 359.565 359.062 C 359.82 358.805 360.108 358.677 360.428 358.677 C 360.748 358.677 361.026 358.795 361.262 359.031 C 361.496 359.265 361.613 359.543 361.613 359.863 C 361.613 360.225 361.464 360.546 361.164 360.823 L 354.86 366.457 L 361.773 372.474 Z M 366.637 374.682 C 366.252 374.682 365.937 374.569 365.693 374.345 C 365.446 374.121 365.323 373.807 365.323 373.403 L 365.323 359.894 C 365.323 359.488 365.446 359.173 365.693 358.949 C 365.937 358.725 366.252 358.613 366.637 358.613 C 367.021 358.613 367.33 358.725 367.564 358.949 C 367.799 359.173 367.916 359.488 367.916 359.894 L 367.916 373.403 C 367.916 373.829 367.799 374.149 367.564 374.363 C 367.33 374.575 367.021 374.682 366.637 374.682 Z M 366.637 355.253 C 366.124 355.253 365.707 355.103 365.387 354.804 C 365.067 354.506 364.907 354.111 364.907 353.62 C 364.907 353.151 365.067 352.767 365.387 352.468 C 365.707 352.17 366.124 352.021 366.637 352.021 C 367.149 352.021 367.565 352.17 367.885 352.468 C 368.205 352.767 368.365 353.151 368.365 353.62 C 368.365 354.111 368.205 354.506 367.885 354.804 C 367.565 355.103 367.149 355.253 366.637 355.253 Z M 380.59 358.549 C 384.326 358.549 386.193 360.608 386.193 364.727 L 386.193 373.403 C 386.193 373.807 386.081 374.121 385.857 374.345 C 385.633 374.569 385.318 374.682 384.913 374.682 C 384.507 374.682 384.187 374.569 383.953 374.345 C 383.718 374.121 383.601 373.807 383.601 373.403 L 383.601 364.889 C 383.601 363.437 383.318 362.381 382.751 361.719 C 382.187 361.057 381.285 360.725 380.046 360.725 C 378.617 360.725 377.475 361.163 376.622 362.039 C 375.768 362.914 375.341 364.098 375.341 365.592 L 375.341 373.403 C 375.341 373.807 375.229 374.121 375.004 374.345 C 374.78 374.569 374.466 374.682 374.062 374.682 C 373.657 374.682 373.336 374.569 373.1 374.345 C 372.865 374.121 372.748 373.807 372.748 373.403 L 372.748 359.894 C 372.748 359.51 372.865 359.201 373.1 358.967 C 373.336 358.731 373.657 358.613 374.062 358.613 C 374.446 358.613 374.749 358.731 374.974 358.967 C 375.198 359.201 375.31 359.5 375.31 359.863 L 375.31 361.495 C 375.822 360.535 376.536 359.804 377.453 359.303 C 378.372 358.8 379.418 358.549 380.59 358.549 Z M 403.572 358.613 C 403.977 358.613 404.297 358.731 404.532 358.967 C 404.766 359.201 404.883 359.51 404.883 359.894 L 404.883 373.465 C 404.883 375.792 404.286 377.548 403.092 378.732 C 401.897 379.916 400.126 380.508 397.778 380.508 C 395.495 380.508 393.596 380.06 392.08 379.163 C 391.311 378.737 390.927 378.247 390.927 377.692 C 390.927 377.393 391.007 377.147 391.168 376.956 C 391.328 376.763 391.535 376.666 391.792 376.666 C 392.006 376.666 392.39 376.816 392.945 377.115 C 393.691 377.5 394.427 377.81 395.152 378.044 C 395.878 378.279 396.742 378.396 397.745 378.396 C 399.261 378.396 400.403 377.995 401.171 377.195 C 401.94 376.395 402.324 375.227 402.324 373.691 L 402.324 370.937 C 401.876 371.939 401.187 372.708 400.258 373.242 C 399.33 373.775 398.237 374.042 396.977 374.042 C 395.611 374.042 394.401 373.722 393.345 373.082 C 392.288 372.442 391.466 371.535 390.881 370.361 C 390.294 369.187 390 367.832 390 366.295 C 390 364.759 390.294 363.404 390.881 362.232 C 391.466 361.058 392.288 360.151 393.345 359.511 C 394.401 358.869 395.611 358.549 396.977 358.549 C 398.215 358.549 399.292 358.816 400.211 359.349 C 401.129 359.883 401.822 360.641 402.291 361.623 L 402.291 359.894 C 402.291 359.51 402.403 359.201 402.627 358.967 C 402.851 358.731 403.166 358.613 403.572 358.613 Z M 397.49 371.897 C 398.983 371.897 400.156 371.401 401.01 370.41 C 401.864 369.417 402.291 368.046 402.291 366.295 C 402.291 364.567 401.87 363.207 401.028 362.214 C 400.184 361.222 399.005 360.725 397.49 360.725 C 395.974 360.725 394.784 361.222 393.92 362.214 C 393.056 363.207 392.624 364.567 392.624 366.295 C 392.624 368.046 393.056 369.417 393.92 370.41 C 394.784 371.401 395.974 371.897 397.49 371.897 Z M 425.655 358.613 C 426.55 358.549 426.998 358.912 426.998 359.701 C 426.998 360.043 426.902 360.315 426.71 360.517 C 426.519 360.721 426.188 360.844 425.717 360.887 L 424.757 360.982 C 423.328 361.11 422.267 361.618 421.574 362.504 C 420.879 363.389 420.532 364.428 420.532 365.623 L 420.532 373.403 C 420.532 373.829 420.415 374.149 420.18 374.363 C 419.946 374.575 419.637 374.682 419.253 374.682 C 418.868 374.682 418.554 374.569 418.309 374.345 C 418.063 374.121 417.939 373.807 417.939 373.403 L 417.939 359.894 C 417.939 359.488 418.068 359.173 418.324 358.949 C 418.581 358.725 418.891 358.613 419.253 358.613 C 419.594 358.613 419.882 358.725 420.116 358.949 C 420.351 359.173 420.468 359.478 420.468 359.863 L 420.468 361.654 C 420.916 360.715 421.551 360 422.372 359.511 C 423.194 359.02 424.138 358.732 425.206 358.646 L 425.655 358.613 Z M 440.984 370.906 C 441.22 370.906 441.423 371.001 441.592 371.193 C 441.763 371.385 441.849 371.63 441.849 371.93 C 441.849 372.464 441.476 372.955 440.73 373.403 C 439.961 373.85 439.15 374.185 438.296 374.41 C 437.442 374.634 436.61 374.746 435.799 374.746 C 433.388 374.746 431.483 374.031 430.085 372.602 C 428.688 371.172 427.99 369.198 427.99 366.68 C 427.99 365.08 428.299 363.667 428.917 362.44 C 429.536 361.213 430.406 360.258 431.527 359.575 C 432.647 358.891 433.921 358.549 435.352 358.549 C 437.378 358.549 438.989 359.211 440.185 360.535 C 441.38 361.858 441.977 363.65 441.977 365.913 C 441.977 366.339 441.892 366.648 441.721 366.84 C 441.55 367.031 441.272 367.127 440.889 367.127 L 430.583 367.127 C 430.774 370.798 432.513 372.633 435.799 372.633 C 436.632 372.633 437.347 372.521 437.945 372.297 C 438.542 372.073 439.182 371.769 439.865 371.386 C 440.419 371.065 440.792 370.906 440.984 370.906 Z M 435.383 360.566 C 434.017 360.566 432.924 360.993 432.102 361.847 C 431.281 362.701 430.796 363.906 430.647 365.464 L 439.705 365.464 C 439.663 363.884 439.267 362.674 438.52 361.831 C 437.774 360.988 436.728 360.566 435.383 360.566 Z M 452.634 354.005 C 451.502 354.091 450.649 354.447 450.074 355.076 C 449.497 355.705 449.209 356.65 449.209 357.909 L 449.209 358.934 L 452.762 358.934 C 453.125 358.934 453.402 359.029 453.594 359.221 C 453.787 359.414 453.883 359.671 453.883 359.991 C 453.883 360.311 453.787 360.556 453.594 360.725 C 453.402 360.896 453.125 360.982 452.762 360.982 L 449.209 360.982 L 449.209 373.403 C 449.209 373.807 449.087 374.121 448.842 374.345 C 448.596 374.569 448.291 374.682 447.928 374.682 C 447.545 374.682 447.23 374.569 446.984 374.345 C 446.739 374.121 446.617 373.807 446.617 373.403 L 446.617 360.982 L 444.471 360.982 C 444.108 360.982 443.826 360.891 443.624 360.71 C 443.422 360.528 443.321 360.289 443.321 359.991 C 443.321 359.671 443.422 359.414 443.624 359.221 C 443.826 359.029 444.108 358.934 444.471 358.934 L 446.617 358.934 L 446.617 358.358 C 446.617 356.437 447.097 354.927 448.057 353.828 C 449.017 352.729 450.393 352.116 452.187 351.988 L 453.018 351.923 C 453.573 351.881 453.973 351.934 454.22 352.085 C 454.465 352.234 454.587 352.5 454.587 352.883 C 454.587 353.503 454.214 353.855 453.468 353.941 L 452.634 354.005 Z M 456.027 374.682 C 455.642 374.682 455.327 374.569 455.082 374.345 C 454.836 374.121 454.713 373.807 454.713 373.403 L 454.713 353.076 C 454.713 352.67 454.836 352.355 455.082 352.131 C 455.327 351.907 455.642 351.795 456.027 351.795 C 456.39 351.795 456.694 351.907 456.938 352.131 C 457.183 352.355 457.306 352.67 457.306 353.076 L 457.306 373.403 C 457.306 373.807 457.183 374.121 456.938 374.345 C 456.694 374.569 456.39 374.682 456.027 374.682 Z M 475.742 370.906 C 475.978 370.906 476.18 371.001 476.35 371.193 C 476.521 371.385 476.607 371.63 476.607 371.93 C 476.607 372.464 476.233 372.955 475.487 373.403 C 474.719 373.85 473.908 374.185 473.054 374.41 C 472.2 374.634 471.368 374.746 470.556 374.746 C 468.145 374.746 466.241 374.031 464.842 372.602 C 463.446 371.172 462.748 369.198 462.748 366.68 C 462.748 365.08 463.057 363.667 463.674 362.44 C 464.294 361.213 465.164 360.258 466.285 359.575 C 467.404 358.891 468.679 358.549 470.11 358.549 C 472.136 358.549 473.747 359.211 474.943 360.535 C 476.138 361.858 476.735 363.65 476.735 365.913 C 476.735 366.339 476.649 366.648 476.478 366.84 C 476.307 367.031 476.03 367.127 475.646 367.127 L 465.34 367.127 C 465.532 370.798 467.271 372.633 470.556 372.633 C 471.39 372.633 472.105 372.521 472.702 372.297 C 473.299 372.073 473.939 371.769 474.622 371.386 C 475.177 371.065 475.55 370.906 475.742 370.906 Z M 470.14 360.566 C 468.775 360.566 467.681 360.993 466.86 361.847 C 466.039 362.701 465.553 363.906 465.404 365.464 L 474.463 365.464 C 474.42 363.884 474.025 362.674 473.277 361.831 C 472.531 360.988 471.485 360.566 470.14 360.566 Z M 486.976 374.746 C 485.525 374.746 484.239 374.416 483.118 373.755 C 481.997 373.093 481.133 372.153 480.525 370.937 C 479.918 369.721 479.614 368.313 479.614 366.711 C 479.614 365.111 479.928 363.692 480.556 362.455 C 481.186 361.218 482.067 360.258 483.198 359.575 C 484.329 358.891 485.631 358.549 487.104 358.549 C 487.914 358.549 488.719 358.661 489.52 358.885 C 490.321 359.109 491.02 359.435 491.617 359.863 C 492.001 360.118 492.273 360.369 492.433 360.615 C 492.593 360.86 492.672 361.132 492.672 361.431 C 492.672 361.729 492.593 361.975 492.433 362.168 C 492.273 362.359 492.065 362.455 491.81 362.455 C 491.659 362.455 491.499 362.413 491.329 362.327 C 491.158 362.241 491.014 362.156 490.896 362.07 C 490.78 361.985 490.7 361.932 490.657 361.911 C 490.103 361.548 489.575 361.26 489.073 361.046 C 488.57 360.832 487.956 360.725 487.23 360.725 C 485.673 360.725 484.462 361.254 483.598 362.311 C 482.734 363.367 482.302 364.834 482.302 366.711 C 482.302 368.59 482.734 370.041 483.598 371.065 C 484.462 372.09 485.673 372.602 487.23 372.602 C 487.956 372.602 488.581 372.495 489.104 372.281 C 489.626 372.068 490.154 371.779 490.688 371.417 C 490.922 371.268 491.147 371.14 491.36 371.034 C 491.574 370.926 491.756 370.872 491.905 370.872 C 492.139 370.872 492.337 370.969 492.497 371.162 C 492.657 371.354 492.736 371.599 492.736 371.897 C 492.736 372.175 492.662 372.427 492.513 372.651 C 492.364 372.874 492.087 373.124 491.681 373.403 C 491.084 373.807 490.364 374.132 489.52 374.379 C 488.678 374.623 487.83 374.746 486.976 374.746 Z M 503.106 372.633 C 503.852 372.698 504.225 373.04 504.225 373.657 C 504.225 374.02 504.093 374.292 503.827 374.474 C 503.56 374.655 503.16 374.724 502.626 374.682 L 501.761 374.617 C 500.055 374.491 498.796 373.979 497.985 373.082 C 497.174 372.186 496.768 370.83 496.768 369.016 L 496.768 360.982 L 494.623 360.982 C 494.26 360.982 493.977 360.891 493.775 360.71 C 493.573 360.528 493.472 360.289 493.472 359.991 C 493.472 359.671 493.573 359.414 493.775 359.221 C 493.977 359.029 494.26 358.934 494.623 358.934 L 496.768 358.934 L 496.768 355.317 C 496.768 354.911 496.886 354.596 497.12 354.372 C 497.355 354.148 497.675 354.036 498.08 354.036 C 498.465 354.036 498.775 354.148 499.009 354.372 C 499.244 354.596 499.361 354.911 499.361 355.317 L 499.361 358.934 L 502.914 358.934 C 503.256 358.934 503.528 359.029 503.73 359.221 C 503.933 359.414 504.035 359.671 504.035 359.991 C 504.035 360.289 503.933 360.528 503.73 360.71 C 503.528 360.891 503.256 360.982 502.914 360.982 L 499.361 360.982 L 499.361 369.145 C 499.361 370.319 499.601 371.167 500.082 371.689 C 500.561 372.212 501.281 372.506 502.241 372.569 L 503.106 372.633 Z M 513.251 374.746 C 511.779 374.746 510.483 374.416 509.362 373.755 C 508.242 373.093 507.377 372.148 506.77 370.921 C 506.162 369.694 505.858 368.269 505.858 366.647 C 505.858 365.026 506.162 363.603 506.77 362.376 C 507.377 361.149 508.242 360.204 509.362 359.542 C 510.483 358.88 511.779 358.549 513.251 358.549 C 514.724 358.549 516.027 358.88 517.158 359.542 C 518.287 360.204 519.157 361.149 519.766 362.376 C 520.374 363.603 520.677 365.026 520.677 366.647 C 520.677 368.269 520.374 369.694 519.766 370.921 C 519.157 372.148 518.287 373.093 517.158 373.755 C 516.027 374.416 514.724 374.746 513.251 374.746 Z M 513.251 372.602 C 514.788 372.602 515.967 372.095 516.788 371.08 C 517.61 370.067 518.02 368.589 518.02 366.647 C 518.02 364.749 517.605 363.283 516.773 362.247 C 515.941 361.212 514.767 360.694 513.251 360.694 C 511.737 360.694 510.563 361.212 509.729 362.247 C 508.898 363.283 508.482 364.749 508.482 366.647 C 508.482 368.569 508.893 370.041 509.714 371.065 C 510.536 372.09 511.715 372.602 513.251 372.602 Z M 541.898 358.549 C 545.354 358.549 547.083 360.608 547.083 364.727 L 547.083 373.403 C 547.083 373.807 546.966 374.121 546.731 374.345 C 546.497 374.569 546.187 374.682 545.802 374.682 C 545.418 374.682 545.104 374.569 544.857 374.345 C 544.613 374.121 544.49 373.807 544.49 373.403 L 544.49 364.791 C 544.49 363.362 544.234 362.328 543.723 361.688 C 543.209 361.046 542.409 360.725 541.323 360.725 C 540.02 360.725 538.995 361.163 538.248 362.039 C 537.501 362.914 537.128 364.098 537.128 365.592 L 537.128 373.403 C 537.128 373.807 537.006 374.121 536.761 374.345 C 536.515 374.569 536.2 374.682 535.817 374.682 C 535.432 374.682 535.122 374.569 534.887 374.345 C 534.653 374.121 534.536 373.807 534.536 373.403 L 534.536 364.791 C 534.536 363.362 534.28 362.328 533.768 361.688 C 533.255 361.046 532.444 360.725 531.335 360.725 C 530.055 360.725 529.036 361.163 528.278 362.039 C 527.52 362.914 527.141 364.098 527.141 365.592 L 527.141 373.403 C 527.141 373.807 527.023 374.121 526.789 374.345 C 526.554 374.569 526.245 374.682 525.862 374.682 C 525.477 374.682 525.162 374.569 524.917 374.345 C 524.671 374.121 524.548 373.807 524.548 373.403 L 524.548 359.894 C 524.548 359.51 524.671 359.201 524.917 358.967 C 525.162 358.731 525.477 358.613 525.862 358.613 C 526.225 358.613 526.523 358.725 526.758 358.949 C 526.992 359.173 527.11 359.478 527.11 359.863 L 527.11 361.398 C 527.579 360.48 528.23 359.776 529.063 359.285 C 529.895 358.794 530.855 358.549 531.943 358.549 C 534.375 358.549 535.965 359.574 536.712 361.623 C 537.161 360.684 537.844 359.937 538.761 359.383 C 539.678 358.827 540.724 358.549 541.898 358.549 Z M 563.883 370.906 C 564.119 370.906 564.322 371.001 564.492 371.193 C 564.663 371.385 564.748 371.63 564.748 371.93 C 564.748 372.464 564.375 372.955 563.629 373.403 C 562.861 373.85 562.049 374.185 561.196 374.41 C 560.342 374.634 559.509 374.746 558.698 374.746 C 556.287 374.746 554.382 374.031 552.984 372.602 C 551.588 371.172 550.889 369.198 550.889 366.68 C 550.889 365.08 551.198 363.667 551.816 362.44 C 552.436 361.213 553.306 360.258 554.426 359.575 C 555.546 358.891 556.821 358.549 558.251 358.549 C 560.278 358.549 561.889 359.211 563.085 360.535 C 564.279 361.858 564.877 363.65 564.877 365.913 C 564.877 366.339 564.791 366.648 564.62 366.84 C 564.449 367.031 564.172 367.127 563.788 367.127 L 553.482 367.127 C 553.674 370.798 555.412 372.633 558.698 372.633 C 559.531 372.633 560.247 372.521 560.844 372.297 C 561.441 372.073 562.081 371.769 562.764 371.386 C 563.319 371.065 563.691 370.906 563.883 370.906 Z M 558.282 360.566 C 556.917 360.566 555.823 360.993 555.002 361.847 C 554.18 362.701 553.695 363.906 553.546 365.464 L 562.605 365.464 C 562.562 363.884 562.167 362.674 561.419 361.831 C 560.673 360.988 559.627 360.566 558.282 360.566 Z M 575.79 372.633 C 576.536 372.698 576.909 373.04 576.909 373.657 C 576.909 374.02 576.776 374.292 576.511 374.474 C 576.244 374.655 575.843 374.724 575.31 374.682 L 574.445 374.617 C 572.738 374.491 571.479 373.979 570.669 373.082 C 569.857 372.186 569.452 370.83 569.452 369.016 L 569.452 360.982 L 567.306 360.982 C 566.943 360.982 566.661 360.891 566.459 360.71 C 566.257 360.528 566.156 360.289 566.156 359.991 C 566.156 359.671 566.257 359.414 566.459 359.221 C 566.661 359.029 566.943 358.934 567.306 358.934 L 569.452 358.934 L 569.452 355.317 C 569.452 354.911 569.569 354.596 569.804 354.372 C 570.038 354.148 570.358 354.036 570.764 354.036 C 571.149 354.036 571.458 354.148 571.693 354.372 C 571.927 354.596 572.044 354.911 572.044 355.317 L 572.044 358.934 L 575.597 358.934 C 575.939 358.934 576.211 359.029 576.413 359.221 C 576.617 359.414 576.719 359.671 576.719 359.991 C 576.719 360.289 576.617 360.528 576.413 360.71 C 576.211 360.891 575.939 360.982 575.597 360.982 L 572.044 360.982 L 572.044 369.145 C 572.044 370.319 572.285 371.167 572.766 371.689 C 573.245 372.212 573.965 372.506 574.925 372.569 L 575.79 372.633 Z M 587.184 358.613 C 588.079 358.549 588.527 358.912 588.527 359.701 C 588.527 360.043 588.431 360.315 588.24 360.517 C 588.048 360.721 587.717 360.844 587.246 360.887 L 586.286 360.982 C 584.857 361.11 583.796 361.618 583.103 362.504 C 582.408 363.389 582.061 364.428 582.061 365.623 L 582.061 373.403 C 582.061 373.829 581.944 374.149 581.709 374.363 C 581.475 374.575 581.166 374.682 580.783 374.682 C 580.398 374.682 580.083 374.569 579.838 374.345 C 579.592 374.121 579.469 373.807 579.469 373.403 L 579.469 359.894 C 579.469 359.488 579.597 359.173 579.853 358.949 C 580.11 358.725 580.42 358.613 580.783 358.613 C 581.123 358.613 581.411 358.725 581.645 358.949 C 581.88 359.173 581.997 359.478 581.997 359.863 L 581.997 361.654 C 582.445 360.715 583.08 360 583.902 359.511 C 584.723 359.02 585.668 358.732 586.735 358.646 L 587.184 358.613 Z M 602.962 359.414 C 603.196 358.902 603.57 358.646 604.083 358.646 C 604.403 358.646 604.691 358.753 604.946 358.967 C 605.203 359.179 605.331 359.445 605.331 359.765 C 605.331 359.958 605.288 360.13 605.203 360.279 L 596.208 379.677 C 596.102 379.911 595.947 380.092 595.744 380.221 C 595.542 380.348 595.334 380.411 595.12 380.411 C 594.8 380.411 594.517 380.31 594.272 380.108 C 594.026 379.906 593.903 379.644 593.903 379.323 C 593.903 379.153 593.946 378.983 594.031 378.812 L 596.272 373.978 L 589.935 360.279 C 589.849 360.13 589.806 359.969 589.806 359.798 C 589.806 359.478 589.95 359.201 590.238 358.967 C 590.527 358.731 590.841 358.613 591.182 358.613 C 591.396 358.613 591.604 358.677 591.806 358.805 C 592.009 358.934 592.164 359.115 592.271 359.349 L 597.617 371.352 L 602.962 359.414 Z M 628.951 351.795 C 629.356 351.795 629.676 351.912 629.911 352.147 C 630.145 352.383 630.262 352.682 630.262 353.045 L 630.262 373.403 C 630.262 373.786 630.145 374.095 629.911 374.33 C 629.676 374.564 629.356 374.682 628.951 374.682 C 628.545 374.682 628.23 374.564 628.006 374.33 C 627.782 374.095 627.67 373.786 627.67 373.403 L 627.67 371.673 C 627.201 372.655 626.513 373.413 625.606 373.947 C 624.699 374.48 623.637 374.746 622.42 374.746 C 621.055 374.746 619.849 374.404 618.804 373.722 C 617.758 373.039 616.947 372.084 616.37 370.857 C 615.795 369.63 615.508 368.205 615.508 366.583 C 615.508 364.983 615.795 363.575 616.37 362.358 C 616.947 361.143 617.758 360.204 618.804 359.542 C 619.849 358.88 621.055 358.549 622.42 358.549 C 623.637 358.549 624.699 358.816 625.606 359.349 C 626.513 359.883 627.201 360.641 627.67 361.623 L 627.67 353.045 C 627.67 352.66 627.782 352.355 628.006 352.131 C 628.23 351.907 628.545 351.795 628.951 351.795 Z M 622.934 372.602 C 624.448 372.602 625.616 372.085 626.438 371.049 C 627.259 370.014 627.67 368.547 627.67 366.647 C 627.67 364.749 627.259 363.288 626.438 362.263 C 625.616 361.238 624.448 360.725 622.934 360.725 C 621.417 360.725 620.238 361.238 619.396 362.263 C 618.553 363.288 618.131 364.728 618.131 366.583 C 618.131 368.483 618.553 369.961 619.396 371.018 C 620.238 372.074 621.417 372.602 622.934 372.602 Z M 641.432 358.549 C 645.337 358.549 647.29 360.598 647.29 364.696 L 647.29 373.403 C 647.29 373.786 647.178 374.095 646.953 374.33 C 646.729 374.564 646.425 374.682 646.04 374.682 C 645.656 374.682 645.347 374.564 645.113 374.33 C 644.878 374.095 644.761 373.786 644.761 373.403 L 644.761 371.866 C 644.356 372.783 643.736 373.492 642.903 373.994 C 642.071 374.495 641.111 374.746 640.023 374.746 C 639.02 374.746 638.097 374.543 637.253 374.137 C 636.411 373.732 635.745 373.166 635.254 372.441 C 634.762 371.715 634.517 370.915 634.517 370.041 C 634.517 368.867 634.816 367.955 635.413 367.304 C 636.012 366.654 636.994 366.184 638.359 365.895 C 639.725 365.608 641.624 365.464 644.056 365.464 L 644.761 365.464 L 644.761 364.406 C 644.761 363.126 644.5 362.188 643.976 361.59 C 643.454 360.993 642.606 360.694 641.432 360.694 C 639.981 360.694 638.508 361.089 637.014 361.878 C 636.438 362.241 636.032 362.422 635.798 362.422 C 635.541 362.422 635.328 362.326 635.158 362.134 C 634.987 361.943 634.902 361.697 634.902 361.398 C 634.902 361.1 634.993 360.839 635.174 360.615 C 635.355 360.391 635.649 360.161 636.054 359.927 C 636.801 359.499 637.649 359.163 638.598 358.918 C 639.548 358.672 640.493 358.549 641.432 358.549 Z M 640.375 372.697 C 641.655 372.697 642.706 372.265 643.529 371.401 C 644.351 370.537 644.761 369.422 644.761 368.056 L 644.761 367.127 L 644.184 367.127 C 642.307 367.127 640.877 367.208 639.895 367.368 C 638.914 367.528 638.215 367.795 637.797 368.169 C 637.382 368.542 637.174 369.092 637.174 369.817 C 637.174 370.649 637.478 371.337 638.087 371.881 C 638.695 372.425 639.457 372.697 640.375 372.697 Z M 659.227 372.633 C 659.973 372.698 660.346 373.04 660.346 373.657 C 660.346 374.02 660.213 374.292 659.948 374.474 C 659.681 374.655 659.28 374.724 658.746 374.682 L 657.882 374.617 C 656.175 374.491 654.917 373.979 654.105 373.082 C 653.294 372.186 652.889 370.83 652.889 369.016 L 652.889 360.982 L 650.743 360.982 C 650.38 360.982 650.098 360.891 649.896 360.71 C 649.694 360.528 649.593 360.289 649.593 359.991 C 649.593 359.671 649.694 359.414 649.896 359.221 C 650.098 359.029 650.38 358.934 650.743 358.934 L 652.889 358.934 L 652.889 355.317 C 652.889 354.911 653.006 354.596 653.241 354.372 C 653.475 354.148 653.795 354.036 654.201 354.036 C 654.585 354.036 654.895 354.148 655.13 354.372 C 655.364 354.596 655.481 354.911 655.481 355.317 L 655.481 358.934 L 659.034 358.934 C 659.376 358.934 659.648 359.029 659.85 359.221 C 660.054 359.414 660.156 359.671 660.156 359.991 C 660.156 360.289 660.054 360.528 659.85 360.71 C 659.648 360.891 659.376 360.982 659.034 360.982 L 655.481 360.982 L 655.481 369.145 C 655.481 370.319 655.722 371.167 656.203 371.689 C 656.682 372.212 657.402 372.506 658.362 372.569 L 659.227 372.633 Z M 669.276 358.549 C 673.182 358.549 675.134 360.598 675.134 364.696 L 675.134 373.403 C 675.134 373.786 675.022 374.095 674.798 374.33 C 674.574 374.564 674.269 374.682 673.884 374.682 C 673.501 374.682 673.192 374.564 672.957 374.33 C 672.723 374.095 672.606 373.786 672.606 373.403 L 672.606 371.866 C 672.2 372.783 671.581 373.492 670.747 373.994 C 669.916 374.495 668.956 374.746 667.867 374.746 C 666.865 374.746 665.941 374.543 665.098 374.137 C 664.256 373.732 663.589 373.166 663.098 372.441 C 662.607 371.715 662.361 370.915 662.361 370.041 C 662.361 368.867 662.66 367.955 663.257 367.304 C 663.856 366.654 664.838 366.184 666.204 365.895 C 667.57 365.608 669.468 365.464 671.9 365.464 L 672.606 365.464 L 672.606 364.406 C 672.606 363.126 672.344 362.188 671.82 361.59 C 671.298 360.993 670.45 360.694 669.276 360.694 C 667.825 360.694 666.353 361.089 664.859 361.878 C 664.282 362.241 663.877 362.422 663.642 362.422 C 663.386 362.422 663.173 362.326 663.003 362.134 C 662.832 361.943 662.746 361.697 662.746 361.398 C 662.746 361.1 662.837 360.839 663.018 360.615 C 663.2 360.391 663.493 360.161 663.899 359.927 C 664.645 359.499 665.493 359.163 666.443 358.918 C 667.393 358.672 668.337 358.549 669.276 358.549 Z M 668.219 372.697 C 669.499 372.697 670.551 372.265 671.373 371.401 C 672.195 370.537 672.606 369.422 672.606 368.056 L 672.606 367.127 L 672.028 367.127 C 670.151 367.127 668.721 367.208 667.739 367.368 C 666.758 367.528 666.059 367.795 665.642 368.169 C 665.226 368.542 665.018 369.092 665.018 369.817 C 665.018 370.649 665.323 371.337 665.932 371.881 C 666.539 372.425 667.302 372.697 668.219 372.697 Z M 694.496 358.549 C 698.402 358.549 700.354 360.598 700.354 364.696 L 700.354 373.403 C 700.354 373.786 700.242 374.095 700.018 374.33 C 699.794 374.564 699.489 374.682 699.104 374.682 C 698.721 374.682 698.412 374.564 698.177 374.33 C 697.943 374.095 697.826 373.786 697.826 373.403 L 697.826 371.866 C 697.42 372.783 696.801 373.492 695.967 373.994 C 695.136 374.495 694.176 374.746 693.087 374.746 C 692.084 374.746 691.161 374.543 690.318 374.137 C 689.476 373.732 688.809 373.166 688.318 372.441 C 687.827 371.715 687.581 370.915 687.581 370.041 C 687.581 368.867 687.88 367.955 688.477 367.304 C 689.076 366.654 690.058 366.184 691.424 365.895 C 692.789 365.608 694.688 365.464 697.12 365.464 L 697.826 365.464 L 697.826 364.406 C 697.826 363.126 697.564 362.188 697.04 361.59 C 696.518 360.993 695.67 360.694 694.496 360.694 C 693.045 360.694 691.573 361.089 690.079 361.878 C 689.502 362.241 689.097 362.422 688.862 362.422 C 688.605 362.422 688.392 362.326 688.223 362.134 C 688.052 361.943 687.966 361.697 687.966 361.398 C 687.966 361.1 688.057 360.839 688.238 360.615 C 688.42 360.391 688.713 360.161 689.119 359.927 C 689.865 359.499 690.713 359.163 691.663 358.918 C 692.612 358.672 693.557 358.549 694.496 358.549 Z M 693.439 372.697 C 694.719 372.697 695.771 372.265 696.593 371.401 C 697.415 370.537 697.826 369.422 697.826 368.056 L 697.826 367.127 L 697.248 367.127 C 695.371 367.127 693.941 367.208 692.959 367.368 C 691.978 367.528 691.279 367.795 690.862 368.169 C 690.446 368.542 690.238 369.092 690.238 369.817 C 690.238 370.649 690.543 371.337 691.152 371.881 C 691.759 372.425 692.522 372.697 693.439 372.697 Z M 712.93 358.549 C 716.666 358.549 718.533 360.608 718.533 364.727 L 718.533 373.403 C 718.533 373.807 718.421 374.121 718.197 374.345 C 717.973 374.569 717.658 374.682 717.253 374.682 C 716.847 374.682 716.527 374.569 716.293 374.345 C 716.058 374.121 715.941 373.807 715.941 373.403 L 715.941 364.889 C 715.941 363.437 715.658 362.381 715.091 361.719 C 714.527 361.057 713.625 360.725 712.386 360.725 C 710.957 360.725 709.815 361.163 708.962 362.039 C 708.108 362.914 707.681 364.098 707.681 365.592 L 707.681 373.403 C 707.681 373.807 707.569 374.121 707.345 374.345 C 707.12 374.569 706.806 374.682 706.402 374.682 C 705.997 374.682 705.676 374.569 705.44 374.345 C 705.205 374.121 705.088 373.807 705.088 373.403 L 705.088 359.894 C 705.088 359.51 705.205 359.201 705.44 358.967 C 705.676 358.731 705.997 358.613 706.402 358.613 C 706.786 358.613 707.089 358.731 707.314 358.967 C 707.538 359.201 707.65 359.5 707.65 359.863 L 707.65 361.495 C 708.161 360.535 708.876 359.804 709.793 359.303 C 710.712 358.8 711.758 358.549 712.93 358.549 Z M 729.638 358.549 C 733.543 358.549 735.496 360.598 735.496 364.696 L 735.496 373.403 C 735.496 373.786 735.383 374.095 735.159 374.33 C 734.935 374.564 734.631 374.682 734.246 374.682 C 733.862 374.682 733.553 374.564 733.319 374.33 C 733.084 374.095 732.967 373.786 732.967 373.403 L 732.967 371.866 C 732.562 372.783 731.942 373.492 731.109 373.994 C 730.277 374.495 729.317 374.746 728.229 374.746 C 727.226 374.746 726.303 374.543 725.459 374.137 C 724.617 373.732 723.95 373.166 723.459 372.441 C 722.968 371.715 722.723 370.915 722.723 370.041 C 722.723 368.867 723.021 367.955 723.619 367.304 C 724.218 366.654 725.2 366.184 726.565 365.895 C 727.931 365.608 729.83 365.464 732.261 365.464 L 732.967 365.464 L 732.967 364.406 C 732.967 363.126 732.705 362.188 732.182 361.59 C 731.66 360.993 730.812 360.694 729.638 360.694 C 728.187 360.694 726.714 361.089 725.22 361.878 C 724.644 362.241 724.238 362.422 724.004 362.422 C 723.747 362.422 723.534 362.326 723.364 362.134 C 723.193 361.943 723.108 361.697 723.108 361.398 C 723.108 361.1 723.198 360.839 723.38 360.615 C 723.561 360.391 723.855 360.161 724.26 359.927 C 725.006 359.499 725.854 359.163 726.804 358.918 C 727.754 358.672 728.698 358.549 729.638 358.549 Z M 728.58 372.697 C 729.861 372.697 730.912 372.265 731.735 371.401 C 732.556 370.537 732.967 369.422 732.967 368.056 L 732.967 367.127 L 732.39 367.127 C 730.512 367.127 729.083 367.208 728.1 367.368 C 727.12 367.528 726.421 367.795 726.003 368.169 C 725.587 368.542 725.38 369.092 725.38 369.817 C 725.38 370.649 725.684 371.337 726.293 371.881 C 726.901 372.425 727.663 372.697 728.58 372.697 Z M 741.544 374.682 C 741.159 374.682 740.844 374.569 740.599 374.345 C 740.353 374.121 740.23 373.807 740.23 373.403 L 740.23 353.076 C 740.23 352.67 740.353 352.355 740.599 352.131 C 740.844 351.907 741.159 351.795 741.544 351.795 C 741.906 351.795 742.21 351.907 742.455 352.131 C 742.7 352.355 742.822 352.67 742.822 353.076 L 742.822 373.403 C 742.822 373.807 742.7 374.121 742.455 374.345 C 742.21 374.569 741.906 374.682 741.544 374.682 Z M 758.89 359.414 C 759.125 358.902 759.499 358.646 760.012 358.646 C 760.332 358.646 760.619 358.753 760.875 358.967 C 761.131 359.179 761.259 359.445 761.259 359.765 C 761.259 359.958 761.217 360.13 761.131 360.279 L 752.137 379.677 C 752.03 379.911 751.876 380.092 751.672 380.221 C 751.47 380.348 751.262 380.411 751.048 380.411 C 750.728 380.411 750.446 380.31 750.201 380.108 C 749.955 379.906 749.832 379.644 749.832 379.323 C 749.832 379.153 749.874 378.983 749.96 378.812 L 752.201 373.978 L 745.863 360.279 C 745.777 360.13 745.735 359.969 745.735 359.798 C 745.735 359.478 745.879 359.201 746.166 358.967 C 746.455 358.731 746.77 358.613 747.111 358.613 C 747.324 358.613 747.532 358.677 747.735 358.805 C 747.938 358.934 748.093 359.115 748.199 359.349 L 753.546 371.352 L 758.89 359.414 Z M 769.067 374.746 C 768.086 374.746 767.153 374.629 766.266 374.394 C 765.381 374.16 764.598 373.829 763.915 373.403 C 763.53 373.146 763.258 372.906 763.098 372.682 C 762.938 372.458 762.857 372.186 762.857 371.866 C 762.857 371.588 762.938 371.359 763.098 371.178 C 763.258 370.996 763.466 370.906 763.722 370.906 C 763.977 370.906 764.35 371.065 764.842 371.386 C 765.482 371.769 766.117 372.073 766.746 372.297 C 767.376 372.521 768.161 372.633 769.1 372.633 C 770.252 372.633 771.148 372.43 771.788 372.025 C 772.428 371.619 772.748 371.032 772.748 370.264 C 772.748 369.795 772.63 369.417 772.396 369.129 C 772.161 368.84 771.756 368.584 771.179 368.362 C 770.604 368.138 769.761 367.907 768.651 367.671 C 766.774 367.266 765.429 366.722 764.618 366.039 C 763.807 365.356 763.401 364.428 763.401 363.256 C 763.401 362.337 763.657 361.526 764.169 360.823 C 764.682 360.118 765.392 359.562 766.299 359.157 C 767.206 358.752 768.236 358.549 769.387 358.549 C 770.219 358.549 771.025 358.661 771.805 358.885 C 772.584 359.109 773.272 359.424 773.869 359.829 C 774.595 360.343 774.958 360.876 774.958 361.431 C 774.958 361.708 774.872 361.943 774.701 362.134 C 774.53 362.326 774.327 362.422 774.093 362.422 C 773.836 362.422 773.452 362.241 772.94 361.878 C 772.343 361.495 771.777 361.196 771.243 360.982 C 770.711 360.768 770.05 360.661 769.259 360.661 C 768.256 360.661 767.451 360.885 766.844 361.334 C 766.235 361.782 765.93 362.38 765.93 363.128 C 765.93 363.597 766.042 363.975 766.266 364.263 C 766.49 364.552 766.864 364.808 767.388 365.032 C 767.91 365.256 768.662 365.475 769.644 365.687 C 771.095 366.007 772.221 366.36 773.02 366.745 C 773.821 367.128 774.392 367.597 774.734 368.151 C 775.075 368.707 775.245 369.412 775.245 370.264 C 775.245 371.609 774.68 372.692 773.548 373.514 C 772.417 374.335 770.924 374.746 769.067 374.746 Z M 780.494 374.682 C 780.109 374.682 779.794 374.569 779.549 374.345 C 779.303 374.121 779.18 373.807 779.18 373.403 L 779.18 359.894 C 779.18 359.488 779.303 359.173 779.549 358.949 C 779.794 358.725 780.109 358.613 780.494 358.613 C 780.877 358.613 781.186 358.725 781.421 358.949 C 781.655 359.173 781.772 359.488 781.772 359.894 L 781.772 373.403 C 781.772 373.829 781.655 374.149 781.421 374.363 C 781.186 374.575 780.877 374.682 780.494 374.682 Z M 780.494 355.253 C 779.981 355.253 779.564 355.103 779.244 354.804 C 778.924 354.506 778.764 354.111 778.764 353.62 C 778.764 353.151 778.924 352.767 779.244 352.468 C 779.564 352.17 779.981 352.021 780.494 352.021 C 781.005 352.021 781.421 352.17 781.741 352.468 C 782.062 352.767 782.221 353.151 782.221 353.62 C 782.221 354.111 782.062 354.506 781.741 354.804 C 781.421 355.103 781.005 355.253 780.494 355.253 Z M 791.854 374.746 C 790.874 374.746 789.94 374.629 789.054 374.394 C 788.169 374.16 787.385 373.829 786.702 373.403 C 786.317 373.146 786.045 372.906 785.886 372.682 C 785.725 372.458 785.645 372.186 785.645 371.866 C 785.645 371.588 785.725 371.359 785.886 371.178 C 786.045 370.996 786.253 370.906 786.51 370.906 C 786.765 370.906 787.138 371.065 787.629 371.386 C 788.269 371.769 788.904 372.073 789.534 372.297 C 790.163 372.521 790.948 372.633 791.887 372.633 C 793.039 372.633 793.935 372.43 794.575 372.025 C 795.215 371.619 795.535 371.032 795.535 370.264 C 795.535 369.795 795.418 369.417 795.183 369.129 C 794.949 368.84 794.543 368.584 793.967 368.362 C 793.392 368.138 792.549 367.907 791.438 367.671 C 789.561 367.266 788.217 366.722 787.406 366.039 C 786.595 365.356 786.189 364.428 786.189 363.256 C 786.189 362.337 786.445 361.526 786.957 360.823 C 787.47 360.118 788.18 359.562 789.087 359.157 C 789.994 358.752 791.023 358.549 792.175 358.549 C 793.007 358.549 793.813 358.661 794.593 358.885 C 795.371 359.109 796.059 359.424 796.657 359.829 C 797.382 360.343 797.745 360.876 797.745 361.431 C 797.745 361.708 797.66 361.943 797.488 362.134 C 797.317 362.326 797.115 362.422 796.88 362.422 C 796.624 362.422 796.239 362.241 795.728 361.878 C 795.13 361.495 794.565 361.196 794.031 360.982 C 793.499 360.768 792.837 360.661 792.047 360.661 C 791.044 360.661 790.239 360.885 789.631 361.334 C 789.022 361.782 788.717 362.38 788.717 363.128 C 788.717 363.597 788.83 363.975 789.054 364.263 C 789.278 364.552 789.652 364.808 790.175 365.032 C 790.697 365.256 791.449 365.475 792.432 365.687 C 793.883 366.007 795.008 366.36 795.807 366.745 C 796.608 367.128 797.18 367.597 797.522 368.151 C 797.862 368.707 798.033 369.412 798.033 370.264 C 798.033 371.609 797.467 372.692 796.336 373.514 C 795.205 374.335 793.711 374.746 791.854 374.746 Z M 816.595 358.549 C 820.501 358.549 822.453 360.598 822.453 364.696 L 822.453 373.403 C 822.453 373.786 822.341 374.095 822.117 374.33 C 821.893 374.564 821.588 374.682 821.203 374.682 C 820.82 374.682 820.511 374.564 820.276 374.33 C 820.042 374.095 819.925 373.786 819.925 373.403 L 819.925 371.866 C 819.519 372.783 818.9 373.492 818.066 373.994 C 817.235 374.495 816.275 374.746 815.186 374.746 C 814.184 374.746 813.26 374.543 812.417 374.137 C 811.575 373.732 810.908 373.166 810.417 372.441 C 809.926 371.715 809.68 370.915 809.68 370.041 C 809.68 368.867 809.979 367.955 810.576 367.304 C 811.175 366.654 812.157 366.184 813.523 365.895 C 814.889 365.608 816.787 365.464 819.219 365.464 L 819.925 365.464 L 819.925 364.406 C 819.925 363.126 819.663 362.188 819.139 361.59 C 818.617 360.993 817.769 360.694 816.595 360.694 C 815.144 360.694 813.672 361.089 812.178 361.878 C 811.601 362.241 811.196 362.422 810.961 362.422 C 810.705 362.422 810.492 362.326 810.322 362.134 C 810.151 361.943 810.065 361.697 810.065 361.398 C 810.065 361.1 810.156 360.839 810.337 360.615 C 810.519 360.391 810.812 360.161 811.218 359.927 C 811.964 359.499 812.812 359.163 813.762 358.918 C 814.712 358.672 815.656 358.549 816.595 358.549 Z M 815.538 372.697 C 816.818 372.697 817.87 372.265 818.693 371.401 C 819.514 370.537 819.925 369.422 819.925 368.056 L 819.925 367.127 L 819.347 367.127 C 817.47 367.127 816.04 367.208 815.058 367.368 C 814.077 367.528 813.378 367.795 812.961 368.169 C 812.545 368.542 812.337 369.092 812.337 369.817 C 812.337 370.649 812.642 371.337 813.251 371.881 C 813.858 372.425 814.621 372.697 815.538 372.697 Z M 835.029 358.549 C 838.765 358.549 840.633 360.608 840.633 364.727 L 840.633 373.403 C 840.633 373.807 840.52 374.121 840.296 374.345 C 840.072 374.569 839.757 374.682 839.352 374.682 C 838.946 374.682 838.626 374.569 838.392 374.345 C 838.157 374.121 838.04 373.807 838.04 373.403 L 838.04 364.889 C 838.04 363.437 837.757 362.381 837.19 361.719 C 836.626 361.057 835.724 360.725 834.485 360.725 C 833.056 360.725 831.915 361.163 831.061 362.039 C 830.207 362.914 829.78 364.098 829.78 365.592 L 829.78 373.403 C 829.78 373.807 829.668 374.121 829.444 374.345 C 829.22 374.569 828.905 374.682 828.501 374.682 C 828.096 374.682 827.775 374.569 827.539 374.345 C 827.305 374.121 827.187 373.807 827.187 373.403 L 827.187 359.894 C 827.187 359.51 827.305 359.201 827.539 358.967 C 827.775 358.731 828.096 358.613 828.501 358.613 C 828.885 358.613 829.189 358.731 829.413 358.967 C 829.637 359.201 829.749 359.5 829.749 359.863 L 829.749 361.495 C 830.261 360.535 830.975 359.804 831.892 359.303 C 832.811 358.8 833.857 358.549 835.029 358.549 Z M 857.882 351.795 C 858.288 351.795 858.608 351.912 858.842 352.147 C 859.077 352.383 859.194 352.682 859.194 353.045 L 859.194 373.403 C 859.194 373.786 859.077 374.095 858.842 374.33 C 858.608 374.564 858.288 374.682 857.882 374.682 C 857.477 374.682 857.162 374.564 856.938 374.33 C 856.714 374.095 856.601 373.786 856.601 373.403 L 856.601 371.673 C 856.132 372.655 855.444 373.413 854.537 373.947 C 853.631 374.48 852.569 374.746 851.352 374.746 C 849.986 374.746 848.781 374.404 847.735 373.722 C 846.69 373.039 845.879 372.084 845.302 370.857 C 844.727 369.63 844.439 368.205 844.439 366.583 C 844.439 364.983 844.727 363.575 845.302 362.358 C 845.879 361.143 846.69 360.204 847.735 359.542 C 848.781 358.88 849.986 358.549 851.352 358.549 C 852.569 358.549 853.631 358.816 854.537 359.349 C 855.444 359.883 856.132 360.641 856.601 361.623 L 856.601 353.045 C 856.601 352.66 856.714 352.355 856.938 352.131 C 857.162 351.907 857.477 351.795 857.882 351.795 Z M 851.865 372.602 C 853.38 372.602 854.548 372.085 855.369 371.049 C 856.191 370.014 856.601 368.547 856.601 366.647 C 856.601 364.749 856.191 363.288 855.369 362.263 C 854.548 361.238 853.38 360.725 851.865 360.725 C 850.349 360.725 849.17 361.238 848.328 362.263 C 847.485 363.288 847.063 364.728 847.063 366.583 C 847.063 368.483 847.485 369.961 848.328 371.018 C 849.17 372.074 850.349 372.602 851.865 372.602 Z M 889.6 358.549 C 893.057 358.549 894.785 360.608 894.785 364.727 L 894.785 373.403 C 894.785 373.807 894.668 374.121 894.433 374.345 C 894.199 374.569 893.889 374.682 893.504 374.682 C 893.121 374.682 892.806 374.569 892.56 374.345 C 892.315 374.121 892.192 373.807 892.192 373.403 L 892.192 364.791 C 892.192 363.362 891.937 362.328 891.425 361.688 C 890.912 361.046 890.112 360.725 889.025 360.725 C 887.723 360.725 886.697 361.163 885.95 362.039 C 885.204 362.914 884.83 364.098 884.83 365.592 L 884.83 373.403 C 884.83 373.807 884.708 374.121 884.463 374.345 C 884.217 374.569 883.902 374.682 883.519 374.682 C 883.134 374.682 882.824 374.569 882.59 374.345 C 882.355 374.121 882.238 373.807 882.238 373.403 L 882.238 364.791 C 882.238 363.362 881.982 362.328 881.47 361.688 C 880.957 361.046 880.146 360.725 879.037 360.725 C 877.757 360.725 876.738 361.163 875.98 362.039 C 875.222 362.914 874.843 364.098 874.843 365.592 L 874.843 373.403 C 874.843 373.807 874.725 374.121 874.491 374.345 C 874.257 374.569 873.948 374.682 873.564 374.682 C 873.179 374.682 872.864 374.569 872.62 374.345 C 872.373 374.121 872.25 373.807 872.25 373.403 L 872.25 359.894 C 872.25 359.51 872.373 359.201 872.62 358.967 C 872.864 358.731 873.179 358.613 873.564 358.613 C 873.927 358.613 874.226 358.725 874.46 358.949 C 874.695 359.173 874.812 359.478 874.812 359.863 L 874.812 361.398 C 875.281 360.48 875.932 359.776 876.765 359.285 C 877.597 358.794 878.557 358.549 879.645 358.549 C 882.077 358.549 883.667 359.574 884.415 361.623 C 884.863 360.684 885.546 359.937 886.463 359.383 C 887.38 358.827 888.426 358.549 889.6 358.549 Z M 905.985 374.746 C 904.513 374.746 903.216 374.416 902.096 373.755 C 900.975 373.093 900.111 372.148 899.503 370.921 C 898.895 369.694 898.592 368.269 898.592 366.647 C 898.592 365.026 898.895 363.603 899.503 362.376 C 900.111 361.149 900.975 360.204 902.096 359.542 C 903.216 358.88 904.513 358.549 905.985 358.549 C 907.458 358.549 908.76 358.88 909.891 359.542 C 911.021 360.204 911.89 361.149 912.499 362.376 C 913.107 363.603 913.411 365.026 913.411 366.647 C 913.411 368.269 913.107 369.694 912.499 370.921 C 911.89 372.148 911.021 373.093 909.891 373.755 C 908.76 374.416 907.458 374.746 905.985 374.746 Z M 905.985 372.602 C 907.521 372.602 908.7 372.095 909.522 371.08 C 910.343 370.067 910.754 368.589 910.754 366.647 C 910.754 364.749 910.338 363.283 909.506 362.247 C 908.674 361.212 907.5 360.694 905.985 360.694 C 904.47 360.694 903.296 361.212 902.463 362.247 C 901.631 363.283 901.215 364.749 901.215 366.647 C 901.215 368.569 901.626 370.041 902.447 371.065 C 903.269 372.09 904.448 372.602 905.985 372.602 Z M 929.797 351.795 C 930.203 351.795 930.523 351.912 930.757 352.147 C 930.992 352.383 931.109 352.682 931.109 353.045 L 931.109 373.403 C 931.109 373.786 930.992 374.095 930.757 374.33 C 930.523 374.564 930.203 374.682 929.797 374.682 C 929.392 374.682 929.077 374.564 928.853 374.33 C 928.629 374.095 928.517 373.786 928.517 373.403 L 928.517 371.673 C 928.048 372.655 927.36 373.413 926.453 373.947 C 925.546 374.48 924.484 374.746 923.267 374.746 C 921.902 374.746 920.696 374.404 919.65 373.722 C 918.605 373.039 917.794 372.084 917.217 370.857 C 916.642 369.63 916.354 368.205 916.354 366.583 C 916.354 364.983 916.642 363.575 917.217 362.358 C 917.794 361.143 918.605 360.204 919.65 359.542 C 920.696 358.88 921.902 358.549 923.267 358.549 C 924.484 358.549 925.546 358.816 926.453 359.349 C 927.36 359.883 928.048 360.641 928.517 361.623 L 928.517 353.045 C 928.517 352.66 928.629 352.355 928.853 352.131 C 929.077 351.907 929.392 351.795 929.797 351.795 Z M 923.78 372.602 C 925.295 372.602 926.463 372.085 927.284 371.049 C 928.106 370.014 928.517 368.547 928.517 366.647 C 928.517 364.749 928.106 363.288 927.284 362.263 C 926.463 361.238 925.295 360.725 923.78 360.725 C 922.264 360.725 921.085 361.238 920.243 362.263 C 919.4 363.288 918.978 364.728 918.978 366.583 C 918.978 368.483 919.4 369.961 920.243 371.018 C 921.085 372.074 922.264 372.602 923.78 372.602 Z M 947.975 370.906 C 948.211 370.906 948.414 371.001 948.584 371.193 C 948.755 371.385 948.84 371.63 948.84 371.93 C 948.84 372.464 948.467 372.955 947.721 373.403 C 946.953 373.85 946.141 374.185 945.287 374.41 C 944.434 374.634 943.601 374.746 942.79 374.746 C 940.379 374.746 938.474 374.031 937.076 372.602 C 935.68 371.172 934.981 369.198 934.981 366.68 C 934.981 365.08 935.29 363.667 935.908 362.44 C 936.527 361.213 937.398 360.258 938.518 359.575 C 939.638 358.891 940.913 358.549 942.343 358.549 C 944.369 358.549 945.981 359.211 947.177 360.535 C 948.371 361.858 948.968 363.65 948.968 365.913 C 948.968 366.339 948.883 366.648 948.712 366.84 C 948.541 367.031 948.263 367.127 947.88 367.127 L 937.574 367.127 C 937.766 370.798 939.504 372.633 942.79 372.633 C 943.623 372.633 944.338 372.521 944.936 372.297 C 945.533 372.073 946.173 371.769 946.856 371.386 C 947.41 371.065 947.783 370.906 947.975 370.906 Z M 942.374 360.566 C 941.009 360.566 939.915 360.993 939.094 361.847 C 938.272 362.701 937.787 363.906 937.638 365.464 L 946.697 365.464 C 946.654 363.884 946.259 362.674 945.511 361.831 C 944.765 360.988 943.719 360.566 942.374 360.566 Z M 954.089 374.682 C 953.704 374.682 953.389 374.569 953.144 374.345 C 952.898 374.121 952.775 373.807 952.775 373.403 L 952.775 353.076 C 952.775 352.67 952.898 352.355 953.144 352.131 C 953.389 351.907 953.704 351.795 954.089 351.795 C 954.452 351.795 954.755 351.907 955 352.131 C 955.245 352.355 955.367 352.67 955.367 353.076 L 955.367 373.403 C 955.367 373.807 955.245 374.121 955 374.345 C 954.755 374.569 954.452 374.682 954.089 374.682 Z M 961.514 374.682 C 961.129 374.682 960.814 374.569 960.569 374.345 C 960.323 374.121 960.2 373.807 960.2 373.403 L 960.2 353.076 C 960.2 352.67 960.323 352.355 960.569 352.131 C 960.814 351.907 961.129 351.795 961.514 351.795 C 961.877 351.795 962.181 351.907 962.425 352.131 C 962.67 352.355 962.793 352.67 962.793 353.076 L 962.793 373.403 C 962.793 373.807 962.67 374.121 962.425 374.345 C 962.181 374.569 961.877 374.682 961.514 374.682 Z M 968.939 374.682 C 968.554 374.682 968.239 374.569 967.994 374.345 C 967.748 374.121 967.625 373.807 967.625 373.403 L 967.625 359.894 C 967.625 359.488 967.748 359.173 967.994 358.949 C 968.239 358.725 968.554 358.613 968.939 358.613 C 969.323 358.613 969.631 358.725 969.866 358.949 C 970.1 359.173 970.218 359.488 970.218 359.894 L 970.218 373.403 C 970.218 373.829 970.1 374.149 969.866 374.363 C 969.631 374.575 969.323 374.682 968.939 374.682 Z M 968.939 355.253 C 968.426 355.253 968.009 355.103 967.689 354.804 C 967.369 354.506 967.209 354.111 967.209 353.62 C 967.209 353.151 967.369 352.767 967.689 352.468 C 968.009 352.17 968.426 352.021 968.939 352.021 C 969.451 352.021 969.867 352.17 970.187 352.468 C 970.507 352.767 970.667 353.151 970.667 353.62 C 970.667 354.111 970.507 354.506 970.187 354.804 C 969.867 355.103 969.451 355.253 968.939 355.253 Z M 982.892 358.549 C 986.628 358.549 988.495 360.608 988.495 364.727 L 988.495 373.403 C 988.495 373.807 988.384 374.121 988.159 374.345 C 987.935 374.569 987.62 374.682 987.215 374.682 C 986.809 374.682 986.489 374.569 986.255 374.345 C 986.02 374.121 985.903 373.807 985.903 373.403 L 985.903 364.889 C 985.903 363.437 985.62 362.381 985.053 361.719 C 984.489 361.057 983.587 360.725 982.348 360.725 C 980.919 360.725 979.778 361.163 978.924 362.039 C 978.07 362.914 977.643 364.098 977.643 365.592 L 977.643 373.403 C 977.643 373.807 977.531 374.121 977.307 374.345 C 977.083 374.569 976.768 374.682 976.364 374.682 C 975.959 374.682 975.638 374.569 975.402 374.345 C 975.167 374.121 975.05 373.807 975.05 373.403 L 975.05 359.894 C 975.05 359.51 975.167 359.201 975.402 358.967 C 975.638 358.731 975.959 358.613 976.364 358.613 C 976.748 358.613 977.052 358.731 977.276 358.967 C 977.5 359.201 977.612 359.5 977.612 359.863 L 977.612 361.495 C 978.124 360.535 978.838 359.804 979.755 359.303 C 980.674 358.8 981.72 358.549 982.892 358.549 Z M 1005.874 358.613 C 1006.279 358.613 1006.599 358.731 1006.834 358.967 C 1007.068 359.201 1007.185 359.51 1007.185 359.894 L 1007.185 373.465 C 1007.185 375.792 1006.588 377.548 1005.394 378.732 C 1004.199 379.916 1002.428 380.508 1000.08 380.508 C 997.797 380.508 995.898 380.06 994.382 379.163 C 993.613 378.737 993.229 378.247 993.229 377.692 C 993.229 377.393 993.31 377.147 993.47 376.956 C 993.63 376.763 993.838 376.666 994.094 376.666 C 994.308 376.666 994.692 376.816 995.247 377.115 C 995.993 377.5 996.729 377.81 997.454 378.044 C 998.18 378.279 999.044 378.396 1000.047 378.396 C 1001.563 378.396 1002.705 377.995 1003.474 377.195 C 1004.242 376.395 1004.626 375.227 1004.626 373.691 L 1004.626 370.937 C 1004.178 371.939 1003.489 372.708 1002.56 373.242 C 1001.632 373.775 1000.539 374.042 999.279 374.042 C 997.914 374.042 996.703 373.722 995.647 373.082 C 994.59 372.442 993.768 371.535 993.183 370.361 C 992.596 369.187 992.302 367.832 992.302 366.295 C 992.302 364.759 992.596 363.404 993.183 362.232 C 993.768 361.058 994.59 360.151 995.647 359.511 C 996.703 358.869 997.914 358.549 999.279 358.549 C 1000.517 358.549 1001.595 358.816 1002.513 359.349 C 1003.431 359.883 1004.124 360.641 1004.593 361.623 L 1004.593 359.894 C 1004.593 359.51 1004.705 359.201 1004.929 358.967 C 1005.153 358.731 1005.468 358.613 1005.874 358.613 Z M 999.793 371.897 C 1001.285 371.897 1002.458 371.401 1003.312 370.41 C 1004.166 369.417 1004.593 368.046 1004.593 366.295 C 1004.593 364.567 1004.172 363.207 1003.33 362.214 C 1002.486 361.222 1001.307 360.725 999.793 360.725 C 998.276 360.725 997.086 361.222 996.222 362.214 C 995.358 363.207 994.926 364.567 994.926 366.295 C 994.926 368.046 995.358 369.417 996.222 370.41 C 997.086 371.401 998.276 371.897 999.793 371.897 Z M 1032.309 370.906 C 1032.545 370.906 1032.747 371.001 1032.917 371.193 C 1033.088 371.385 1033.173 371.63 1033.173 371.93 C 1033.173 372.464 1032.8 372.955 1032.054 373.403 C 1031.286 373.85 1030.475 374.185 1029.621 374.41 C 1028.767 374.634 1027.934 374.746 1027.123 374.746 C 1024.712 374.746 1022.807 374.031 1021.409 372.602 C 1020.013 371.172 1019.315 369.198 1019.315 366.68 C 1019.315 365.08 1019.624 363.667 1020.241 362.44 C 1020.861 361.213 1021.731 360.258 1022.852 359.575 C 1023.971 358.891 1025.246 358.549 1026.676 358.549 C 1028.703 358.549 1030.314 359.211 1031.51 360.535 C 1032.704 361.858 1033.302 363.65 1033.302 365.913 C 1033.302 366.339 1033.216 366.648 1033.045 366.84 C 1032.874 367.031 1032.597 367.127 1032.213 367.127 L 1021.907 367.127 C 1022.099 370.798 1023.838 372.633 1027.123 372.633 C 1027.957 372.633 1028.672 372.521 1029.269 372.297 C 1029.866 372.073 1030.506 371.769 1031.189 371.386 C 1031.744 371.065 1032.117 370.906 1032.309 370.906 Z M 1026.707 360.566 C 1025.342 360.566 1024.248 360.993 1023.427 361.847 C 1022.606 362.701 1022.12 363.906 1021.971 365.464 L 1031.03 365.464 C 1030.987 363.884 1030.592 362.674 1029.844 361.831 C 1029.098 360.988 1028.052 360.566 1026.707 360.566 Z M 1043.479 358.549 C 1047.384 358.549 1049.337 360.598 1049.337 364.696 L 1049.337 373.403 C 1049.337 373.786 1049.225 374.095 1049.001 374.33 C 1048.776 374.564 1048.472 374.682 1048.087 374.682 C 1047.703 374.682 1047.395 374.564 1047.16 374.33 C 1046.926 374.095 1046.808 373.786 1046.808 373.403 L 1046.808 371.866 C 1046.403 372.783 1045.783 373.492 1044.95 373.994 C 1044.118 374.495 1043.158 374.746 1042.07 374.746 C 1041.067 374.746 1040.144 374.543 1039.3 374.137 C 1038.458 373.732 1037.792 373.166 1037.301 372.441 C 1036.81 371.715 1036.564 370.915 1036.564 370.041 C 1036.564 368.867 1036.863 367.955 1037.46 367.304 C 1038.058 366.654 1039.041 366.184 1040.406 365.895 C 1041.772 365.608 1043.671 365.464 1046.103 365.464 L 1046.808 365.464 L 1046.808 364.406 C 1046.808 363.126 1046.546 362.188 1046.023 361.59 C 1045.501 360.993 1044.653 360.694 1043.479 360.694 C 1042.028 360.694 1040.555 361.089 1039.061 361.878 C 1038.485 362.241 1038.079 362.422 1037.845 362.422 C 1037.588 362.422 1037.375 362.326 1037.205 362.134 C 1037.034 361.943 1036.949 361.697 1036.949 361.398 C 1036.949 361.1 1037.04 360.839 1037.221 360.615 C 1037.402 360.391 1037.696 360.161 1038.101 359.927 C 1038.848 359.499 1039.695 359.163 1040.645 358.918 C 1041.595 358.672 1042.54 358.549 1043.479 358.549 Z M 1042.422 372.697 C 1043.702 372.697 1044.753 372.265 1045.576 371.401 C 1046.398 370.537 1046.808 369.422 1046.808 368.056 L 1046.808 367.127 L 1046.231 367.127 C 1044.354 367.127 1042.924 367.208 1041.942 367.368 C 1040.961 367.528 1040.262 367.795 1039.845 368.169 C 1039.429 368.542 1039.221 369.092 1039.221 369.817 C 1039.221 370.649 1039.525 371.337 1040.134 371.881 C 1040.742 372.425 1041.504 372.697 1042.422 372.697 Z M 1059.32 374.746 C 1058.339 374.746 1057.406 374.629 1056.52 374.394 C 1055.635 374.16 1054.851 373.829 1054.168 373.403 C 1053.783 373.146 1053.511 372.906 1053.352 372.682 C 1053.191 372.458 1053.111 372.186 1053.111 371.866 C 1053.111 371.588 1053.191 371.359 1053.352 371.178 C 1053.511 370.996 1053.719 370.906 1053.976 370.906 C 1054.231 370.906 1054.604 371.065 1055.095 371.386 C 1055.735 371.769 1056.37 372.073 1057 372.297 C 1057.629 372.521 1058.414 372.633 1059.353 372.633 C 1060.505 372.633 1061.401 372.43 1062.041 372.025 C 1062.681 371.619 1063.001 371.032 1063.001 370.264 C 1063.001 369.795 1062.884 369.417 1062.649 369.129 C 1062.415 368.84 1062.009 368.584 1061.433 368.362 C 1060.857 368.138 1060.015 367.907 1058.904 367.671 C 1057.027 367.266 1055.682 366.722 1054.871 366.039 C 1054.06 365.356 1053.655 364.428 1053.655 363.256 C 1053.655 362.337 1053.911 361.526 1054.422 360.823 C 1054.936 360.118 1055.646 359.562 1056.553 359.157 C 1057.46 358.752 1058.489 358.549 1059.641 358.549 C 1060.473 358.549 1061.278 358.661 1062.059 358.885 C 1062.837 359.109 1063.525 359.424 1064.123 359.829 C 1064.848 360.343 1065.211 360.876 1065.211 361.431 C 1065.211 361.708 1065.125 361.943 1064.954 362.134 C 1064.783 362.326 1064.58 362.422 1064.346 362.422 C 1064.089 362.422 1063.705 362.241 1063.193 361.878 C 1062.596 361.495 1062.031 361.196 1061.497 360.982 C 1060.964 360.768 1060.303 360.661 1059.513 360.661 C 1058.51 360.661 1057.704 360.885 1057.097 361.334 C 1056.488 361.782 1056.183 362.38 1056.183 363.128 C 1056.183 363.597 1056.295 363.975 1056.52 364.263 C 1056.744 364.552 1057.117 364.808 1057.641 365.032 C 1058.163 365.256 1058.915 365.475 1059.897 365.687 C 1061.349 366.007 1062.474 366.36 1063.273 366.745 C 1064.074 367.128 1064.645 367.597 1064.988 368.151 C 1065.328 368.707 1065.499 369.412 1065.499 370.264 C 1065.499 371.609 1064.933 372.692 1063.802 373.514 C 1062.671 374.335 1061.177 374.746 1059.32 374.746 Z M 1080.38 359.414 C 1080.615 358.902 1080.989 358.646 1081.502 358.646 C 1081.822 358.646 1082.11 358.753 1082.365 358.967 C 1082.621 359.179 1082.75 359.445 1082.75 359.765 C 1082.75 359.958 1082.707 360.13 1082.621 360.279 L 1073.627 379.677 C 1073.521 379.911 1073.366 380.092 1073.162 380.221 C 1072.96 380.348 1072.752 380.411 1072.538 380.411 C 1072.218 380.411 1071.936 380.31 1071.691 380.108 C 1071.445 379.906 1071.322 379.644 1071.322 379.323 C 1071.322 379.153 1071.365 378.983 1071.45 378.812 L 1073.691 373.978 L 1067.353 360.279 C 1067.268 360.13 1067.225 359.969 1067.225 359.798 C 1067.225 359.478 1067.369 359.201 1067.656 358.967 C 1067.945 358.731 1068.26 358.613 1068.601 358.613 C 1068.815 358.613 1069.023 358.677 1069.225 358.805 C 1069.428 358.934 1069.583 359.115 1069.689 359.349 L 1075.036 371.352 L 1080.38 359.414 Z" style="fill: rgb(229, 229, 229); line-height: 231.452px; white-space: pre;"/>
  <g transform="matrix(0.153191, 0, 0, 0.153191, 110.87236, 236.872589)">
    <path d="M 184.011 40 H 835.989 A 144.011 144.011 0 0 1 980 184.011 V 835.989 A 144.011 144.011 0 0 1 835.989 980 H 184.011 A 144.011 144.011 0 0 1 40 835.989 V 184.011 A 144.011 144.011 0 0 1 184.011 40 Z" style="stroke-linecap: round; stroke-miterlimit: 4; stroke-dasharray: none; stroke-opacity: 1; paint-order: stroke markers; fill-opacity: 1; stroke-width: 69px; stroke: url(#gradient-2); fill: url(#gradient-3);" id="rect949"/>
    <path style="fill: none; fill-opacity: 1; stroke-linecap: round; stroke-linejoin: miter; stroke-miterlimit: 4; stroke-dasharray: none; stroke-opacity: 1; stroke: rgb(152, 226, 255); stroke-width: 138px;" d="M 170 210 L 267.721 210 C 267.721 210 411.135 812.978 850 812.978" id="path961"/>
    <path style="fill: none; fill-opacity: 1; stroke-linecap: round; stroke-linejoin: miter; stroke-miterlimit: 4; stroke-dasharray: none; stroke-opacity: 1; stroke: rgb(255, 255, 255); stroke-width: 67px;" d="M 170 210 L 267.721 210 C 267.721 210 411.135 812.978 850 812.978" id="path951"/>
  </g>
</svg>