<svg viewBox="0 0 1024 1024" xmlns="http://www.w3.org/2000/svg">
  <path d="M156.01 12H868C947.52 12 1012 76.48 1012 156.01V868c0 79.53-64.48 144.01-144.01 144.01H156C76.48 1012 12 947.52 12 867.99V156C12 76.48 76.48 12 156.01 12zm60.46 266.86l12.13 38.5 17.03 46.28 28.98 67.94 39.56 80.56 43.4 70.92 42.78 60.45 44.27 51.28 42.69 42.34 29.07 24.56 40.99 30.08 39.44 24.77 36.07 18.1L675 852.32l42.33 12.77 49.73 10.65 39.7 4.63 42.26 1.74 15.52-1.41s14.57-4.9 14.57-4.82c0 .07 15.04-9.16 15.04-9.16l9.4-10.14 8.66-13.67 5.25-14.84 2.02-16.82-2.79-17.68-5-12.57-8.48-11.5-11.14-11.8-14.97-8.12-16.42-5.12-17.04-.88-35.75-2.13-37.4-5.6-34.21-9.03-33.42-12.37-32.52-15-31.68-20.2-43.47-31.63-34.05-32.07-29.62-30.7-31.02-38.37-47.54-72.2-29.58-51.68-39.1-85.28-25.3-66.62-23.58-72.96-10.13-42.42-2.64-14.43-158.1.18-11.3 1.86a48.8 48.8 0 00-19.83 8.09c-11.65 7.98-20.76 18.77-27.32 32.39-6.63 13.78-7.6 29.05-2.88 45.8 4.81 17.07 15.92 30.88 33.33 41.45 11.16 6.77 23.88 9.66 38.17 8.68 13.9-.96 27.82-1.12 41.78-.47z"/>
</svg>
